<?xml version="1.0" encoding="utf-8"?>
<!-- Generator: Adobe Illustrator 18.0.0, SVG Export Plug-In . SVG Version: 6.00 Build 0)  -->
<!DOCTYPE svg PUBLIC "-//W3C//DTD SVG 1.1//EN" "http://www.w3.org/Graphics/SVG/1.1/DTD/svg11.dtd">
<svg version="1.1" id="Layer_1" xmlns="http://www.w3.org/2000/svg" xmlns:xlink="http://www.w3.org/1999/xlink" x="0px" y="0px"
	 viewBox="0 0 822.2 967" enable-background="new 0 0 822.2 967" xml:space="preserve">
<g>
	<path display="none" fill="#FFFFFF" d="M0,0h396.2c0,38.8-0.2,77.6,0,116.4c1.6-0.2,3.1-0.3,4.7-0.5c-0.2-38.6-0.5-77.2-0.5-115.9
		h10.2c0.1,38.7-0.5,77.3-0.4,116c1.5,0,3.1,0,4.6,0c0-38.7,0-77.4-0.1-116H823v968H0V769.5c0.8,1.2,1.7,2.3,2.5,3.4
		c35.1-24.7,70.2-49.4,105.1-74.4c-0.9-1.2-1.9-2.4-2.8-3.5c-32,22.9-64.2,45.7-96.3,68.5c-2.8,2-5.6,4.1-8.6,5.9V0 M349.6,3.6
		c4.4,38.3,9.4,76.6,13.7,114.9c1.5,0,2.9,0,4.4,0c-4.1-38.4-9.4-76.7-13.9-115.1C352.4,3.4,351,3.5,349.6,3.6 M457.1,3.4
		c-4.4,38-9.6,75.9-13.9,113.8c1.5,0.1,3,0.1,4.5,0.2c4.4-37.9,9.2-75.8,13.7-113.8C460,3.5,458.6,3.5,457.1,3.4 M559.4,19
		c-11.9,37.8-23.9,75.6-36,113.4c1.4,0.5,2.8,1.1,4.2,1.6c12.1-38.1,24.3-76.2,35.9-114.4C562.1,19.3,560.8,19.2,559.4,19 M471.1,21
		c-3.5,32.7-8.1,65.2-11.8,97.9c1.5,0.1,3,0.3,4.5,0.4c3.8-33.1,8.4-66.2,11.7-99.3C474,20.2,472.6,20.5,471.1,21 M251.1,21.5
		c12.1,38.2,24.2,76.5,36.1,114.8c1.4-0.4,2.9-0.8,4.3-1.2c-11.8-38.4-24.2-76.6-36.4-114.9C253.8,20.7,252.5,21.1,251.1,21.5
		 M335.4,20.3c3.7,33.6,8.2,67,11.9,100.6c1.5-0.2,3-0.4,4.5-0.6C348,87,343.6,53.7,339.6,20.3C338.5,20.3,336.4,20.3,335.4,20.3
		 M539.1,29.4c-10.2,33-20.9,65.8-31.2,98.7c1.4,0.3,2.8,0.6,4.2,1c10.9-32.6,20.6-65.6,31.3-98.3C542,30.3,540.6,29.8,539.1,29.4
		 M271.4,32.1c10.3,33.2,20.8,66.3,31.2,99.5c1.4-0.7,2.7-1.3,4.1-1.9c-10.2-33-20.7-65.8-31.3-98.7
		C274.4,31.2,272.4,31.8,271.4,32.1 M553.6,143.2c1.4,0.7,2.8,1.4,4.2,2c16.6-37.2,33.4-74.4,49.9-111.7c-1.1-0.8-2.2-1.5-3.4-2.3
		C587.2,68.5,570.7,106,553.6,143.2 M207,34.6c3.3,8.6,7.4,16.8,11.1,25.2c12.7,28.3,25.3,56.7,38.1,85c0.6,1,0.8,2.5,1.8,3.2
		c1.3-0.3,2.6-0.7,3.8-1.1C245,108.7,227.6,70.9,210.6,33C209.7,33.4,207.9,34.2,207,34.6 M433,34.4c-2.2,27.3-4.1,54.7-5.8,82
		c1.4,0,2.9,0,4.4,0c2.1-27.4,3.9-54.9,5.6-82.4C435.8,34.2,434.4,34.3,433,34.4 M373.8,34.3c1.7,27.8,3.9,55.5,5.5,83.2
		c1.5-0.5,3-0.6,4.6-0.8c-1.7-27.5-3.9-54.9-5.7-82.3C376.7,34.4,375.2,34.4,373.8,34.3 M193.4,39.9c17.4,38,34.6,76.1,51.9,114.1
		c1.4-0.6,2.8-1.1,4.2-1.7c-17.3-38.2-34.8-76.3-52.3-114.4C195.9,38.6,194.6,39.2,193.4,39.9 M564.3,148.1c1.3,0.6,2.7,1.2,4.1,1.8
		c16.8-36.7,33.5-73.5,50.1-110.3c-1.3-0.3-2.6-0.6-3.9-0.9C597.4,75,581.1,111.6,564.3,148.1 M562.9,71.9
		c-8.2,21.9-16.5,43.7-24.5,65.6c1.4,0.5,2.9,1,4.3,1.5c9.9-27.3,20.2-54.5,30.3-81.7c-1.2-0.7-2.4-1.5-3.6-2.2
		C566.9,60.6,565.1,66.3,562.9,71.9 M659.2,55.6c-21.7,35.9-43.4,71.8-65,107.7c1.4,0.7,2.7,1.4,4.1,2.2
		c21.4-36.2,43.3-72,64.8-108.2C661.7,56.7,660.5,56.2,659.2,55.6 M241.6,58.5c10.5,27.8,20.8,55.6,31.1,83.4c1.4-0.7,2.8-1.3,4.3-2
		c-10.5-27.6-20.9-55.4-31.2-83.1C244.3,57.4,243,58,241.6,58.5 M151.3,58.3c22.2,37,44.5,73.9,66.6,110.9c1.4-0.7,2.7-1.5,4.1-2.2
		c-22.1-36.3-43.9-73-66.2-109.2C154.3,58.1,152.8,58.2,151.3,58.3 M475.3,121.1c1.1,0.2,3.2,0.5,4.3,0.7c2.1-16,4.7-32,6.7-48
		c-1.4-0.2-2.9-0.5-4.3-0.7C480,89,476.9,105,475.3,121.1 M324.6,73.8c2.5,16.7,4.6,33.5,7.3,50.1c1.5-0.3,2.9-0.7,4.4-1
		c-2.5-16.7-4.9-33.3-7.3-50C327.5,73.3,326.1,73.6,324.6,73.8 M580.8,156.1c1.3,0.6,2.7,1.3,4,1.9c14.4-26.9,28.7-53.9,43.1-80.7
		c-1.4-0.5-2.7-1-4.1-1.5C609.5,102.5,595,129.3,580.8,156.1 M665.5,76c-12.8,21-25.5,42.1-38.2,63.2c-6.4,10.8-13.3,21.4-19.4,32.4
		c1.3,0.7,2.6,1.4,3.8,2.2c19.1-31.9,38.2-63.8,57.4-95.6C667.9,77.5,666.7,76.8,665.5,76 M145.7,79.9c19.9,32.6,39.3,65.4,59.1,98
		c1.2-0.9,2.5-1.7,3.8-2.6c-19.8-32.6-39.4-65.3-59.2-97.9C148,78.3,146.9,79.1,145.7,79.9 M186.9,78.8
		c14.6,27.6,29.5,55.1,44.1,82.7c1.4-0.6,2.8-1.2,4.1-1.8c-14.5-27.6-29.5-54.8-44.1-82.4C189.6,77.9,188.3,78.4,186.9,78.8
		 M503.7,86.3c-3.5,12.8-7.5,25.4-11.1,38.2c1.5,0.3,3.1,0.5,4.6,0.8c3.5-12.8,7.4-25.4,10.9-38.2C506.6,86.8,505.2,86.5,503.7,86.3
		 M306.6,88.6c3.5,12.8,7.5,25.5,10.9,38.3c1.6-0.1,3.1-0.3,4.6-0.6c-3.6-12.8-7.5-25.6-11.2-38.4C309.5,88.1,308.1,88.3,306.6,88.6
		 M656.8,208.2c1.1,1.1,2.2,2.2,3.4,3.3c28.7-33,57.4-65.9,86.1-98.9c-1.1-0.9-2.1-1.8-3.2-2.7C714.2,142.5,685.7,175.5,656.8,208.2
		 M644.5,197.9c1.2,1,2.3,1.9,3.5,2.9c25.1-28.9,50.4-57.7,75.4-86.7c-1.1-0.8-2.3-1.7-3.4-2.6C694.9,140.3,669.6,169,644.5,197.9
		 M76,123.5c2.8,3.7,6,7,9,10.5c23.9,27.5,47.9,55,71.9,82.5c1.1-1,2.2-2,3.4-2.9c-26.8-31-53.9-61.6-80.8-92.5
		C78.2,121.9,77.1,122.7,76,123.5 M239.5,164.3c-57.7,30.8-106.9,77.3-140.7,133.2c15.8,0.1,31.5,0.2,47.3,0
		c7.8-10.9,16.5-21.2,25.5-31.1c-2.1-3.5-4.1-7.1-6.3-10.6c21.4-23,46.3-42.9,73.3-59c1.7,3.7,3.5,7.4,5.7,10.8
		c8.1-4.5,16.2-9.2,24.6-13c-2.1-3.7-4.4-7.3-5.5-11.4c4.3-1.8,8.5-4,12.9-5.8c51.1-22.4,108-31.6,163.6-26.7
		c41.7,3.6,82.6,15.1,120.1,33.6c-1.2,4-3.5,7.5-5.6,11c8.4,4.2,16.5,8.7,24.6,13.3c2-3.5,3.9-7,5.7-10.6
		c28.5,17.4,54.8,38.8,76.8,64c-1,3.9-4.1,7.1-5.8,10.8c6.9,8,13.6,16.2,19.8,24.8c15.5,0,31.1,0.2,46.6-0.1
		c-1.2-3.4-3.5-6.3-5.3-9.3c-38.2-58.9-93.7-106.7-158-135.2c-40.8-18.2-85.1-28.6-129.8-30.8C363.7,118.9,297.3,133.4,239.5,164.3
		 M99.6,126.3c22.9,26.5,46.2,52.8,69,79.4c1.2-1,2.4-1.9,3.5-2.9c-7.8-9.3-15.9-18.2-23.8-27.4c-15.5-17.6-30.7-35.4-46.4-52.7
		C101.2,123.9,98,124.8,99.6,126.3 M620.6,179.8c1.3,0.9,2.7,1.9,4,2.8c0.6-1.4,1.2-2.8,2.1-4c9.9-15.9,20-31.7,29.9-47.6
		c-1.2-0.8-2.4-1.7-3.6-2.5C642.3,145.7,631.3,162.7,620.6,179.8 M158.1,132.6c11.3,18.1,22.7,36,34,54.1c1.3-0.9,2.6-1.7,3.8-2.6
		c-11.4-18-23-36.1-34.3-54.2C160.5,130.9,159.3,131.7,158.1,132.6 M678.8,229.4c1,1.2,2.1,2.5,3.1,3.7
		c33.2-30.3,66.6-60.4,99.7-90.7c-1-1-2-1.9-2.9-2.9C745.3,169.3,712.4,199.7,678.8,229.4 M667.8,218.5c1.1,1.1,2.2,2.2,3.3,3.2
		c23-24,46.3-47.7,69.2-71.8c-1.1-0.9-2.1-1.7-3.2-2.6C713.8,170.9,690.8,194.8,667.8,218.5 M632.2,188.3c1.3,0.9,2.8,1.8,4.2,2.6
		c10.3-13.4,21.6-25.9,32.1-39.1c-1.1-0.9-2.3-1.7-3.4-2.6C654,162.2,643.2,175.3,632.2,188.3 M785.4,149.9
		c-32.8,29.4-65.7,58.8-98.5,88.1c1,1.2,2,2.4,3,3.5c32.9-29.6,65.8-59.1,98.7-88.8C787.4,151.8,786.4,150.8,785.4,149.9
		 M40.5,153.3c2.6,2.8,5.6,5.2,8.4,7.9c28.7,25.9,57.2,52.1,85.9,78c1-1.1,2.1-2.2,3.2-3.3c-31.3-28.3-62.8-56.5-94-85.1
		C42.8,151.6,41.6,152.5,40.5,153.3 M82,161.3c21,22.2,42.7,43.8,63.5,66.2c1.2-1,2.4-1.9,3.6-2.9c-20.9-22.4-42.7-44-63.9-66.1
		C84.2,159.4,83.1,160.3,82,161.3 M153.8,163.2c8.8,10.9,17.9,21.6,26.9,32.4c1.2-0.9,2.4-1.8,3.6-2.8c-9.1-10.8-18-21.8-27.3-32.4
		C156,161.3,154.9,162.3,153.8,163.2 M33.9,163.6c0.7,0.9,1.4,1.7,2.2,2.4c30.3,27.4,60.7,54.7,91.1,82c0.9-1.2,1.9-2.5,2.8-3.7
		c-31.2-27.2-61.5-55.5-92.9-82.5C36.1,162.3,35,163,33.9,163.6 M299,184.2c-54,19.7-102.4,54.3-138.9,98.7
		C118,334.1,91.8,398.5,87.5,464.8c-1.4,0.6-2.8,1.5-4.4,1.4c-12-0.3-24-0.8-36-1.2c-4.4,71.9,13.2,145,50.1,206.9
		c36.7,61.5,91.6,112,156.3,142.9c78.1,37.6,169.8,45.4,253.4,22.7c58.3-15.8,112.4-46.6,155.9-88.5c45.4-43.4,79.5-98.5,97.2-158.8
		c12-40.4,16.7-82.8,14.5-124.8c-12.7,0.5-25.4,0.8-38.1,1.3c0.5,5.5,0.2,11,0.9,16.5c3.6-1,6.5-3.7,9.9-5.2
		c0.3,19.5-0.5,39.1-3.7,58.4c-3.4,1.7-6.7,3.5-10.1,5.2c-2.6,11.8-4.7,23.7-7.9,35.3c3.5-1.8,7-3.6,10.6-5.3
		c-0.2,1.2-0.4,2.4-0.6,3.5c-17,62.6-53,119.7-101.5,162.7c-49.8,44.3-113,73.3-179.1,81.8c-49.4,6.5-100.4,2-147.8-13.4
		c-34.3-11.1-66.8-27.8-95.8-49.2C149.5,711.5,103.8,644.6,85,570.4c3.6,1.6,7.2,3.4,10.8,5.2c-2.8-11.6-5.6-23.2-7.3-35
		c-3.6-2.1-8.1-3.1-10.6-6.6c-3.4-19.1-3.8-38.7-3.7-58.1c3.4,2.1,6.9,4.1,10.5,5.9c0.1-4.4,0.2-8.8-0.2-13.2c0.7-0.3,2-1,2.6-1.3
		c-5.2,75.9,17.5,153.5,63,214.5c43,58.1,105.9,101.3,175.8,120c48.1,13,99.3,14.8,148.2,5.1c65.6-12.8,126.8-46.8,172.5-95.5
		c48.6-51,79.6-118.5,86.8-188.6c5.1-48-0.6-97.1-16.8-142.6c-12.5-35.2-31.1-68.2-54.8-97.1c-44-53.9-105.8-93.1-173.6-109.5
		C425.9,158.5,359.2,162.1,299,184.2 M707.4,262.8c0.9,1.2,1.9,2.4,2.8,3.7c37.3-26.6,74.7-53.1,112.1-79.7
		c-0.8-1.1-1.7-2.1-2.5-3.2C782.2,209.8,744.9,236.4,707.4,262.8 M698.3,251.3c1,1.2,1.9,2.4,2.9,3.6c27-21.3,54-42.7,81-64
		c-1-1-2-2.1-3.1-3.1C752.2,209,725.2,230.1,698.3,251.3 M0.9,198.9c2.8,1.6,5.4,3.6,8,5.4c32.7,23.1,65.1,46.6,98,69.4
		c0.9-1.1,1.8-2.2,2.7-3.4c-35.9-25.2-71.5-50.8-107.6-75.8C1.1,195.8,1,197.4,0.9,198.9 M40.2,202.1c25.1,20.2,50.4,40.2,75.9,59.9
		c0.8-1.3,1.6-2.6,2.3-3.9c-24-18.5-47.7-37.4-71.5-56c-1.3-1-2.5-2.3-4-2.9C42,200.1,41.1,201.1,40.2,202.1 M716.9,275.4
		c0.7,1.4,1.5,2.7,2.3,4c33.6-23.7,67-47.5,100.5-71.4c-0.9-1.1-1.8-2.2-2.7-3.2C783.6,228.3,750.4,252,716.9,275.4 M2.5,219.3
		c31.8,22.6,63.6,45.2,95.4,67.8c0.9-1.3,1.8-2.5,2.7-3.8C68.7,261,37.1,238.3,5.1,216C4.3,217.1,3.4,218.2,2.5,219.3 M725.3,287.9
		c0.6,1.4,1.3,2.7,2,4.1c20.1-13.2,39.7-27,59.8-40.3c-0.8-1.3-1.5-2.6-2.2-3.8C764.9,261.2,745.2,274.7,725.3,287.9 M35.2,262.6
		c1.8,1.6,3.8,2.8,5.7,4.2c15.8,10.6,31.4,21.4,47.2,32c0.7,0.4,1.5,0.8,2.3,1.2c0.6-1.3,1.2-2.7,1.9-4
		c-18.3-12.2-36.5-24.6-54.8-36.9C36.8,260.3,36,261.5,35.2,262.6 M46.6,311.6c0,5,0,9.9,0,14.9c12.1-0.1,24.2-0.1,36.3,0
		c-12.5,26-22.3,53.2-28.1,81.5c13.2-0.7,26.5-0.9,39.8-1.4c2.9-10.3,6-20.6,9.6-30.7c-3-2.1-6-4.2-8.9-6.4
		c-0.3-1.2,0.6-2.2,0.8-3.3c5.2-13.6,11.3-26.8,18.2-39.7c4.2,0,8.5,0.2,12.8-0.3c3.6-4.5,6-9.6,9.1-14.4
		C106.3,311.3,76.5,311.8,46.6,311.6 M685.3,311.6c2.9,4.9,5.9,9.7,8.8,14.6c4.4,0,8.7,0.2,13.1,0.3c7.4,14.3,14.2,29,19.7,44.1
		c-3.1,2.2-6.1,4.4-9.2,6.5c3.4,9.5,6.4,19.2,9,29c13.3,0.4,26.5,0.8,39.8,1.4c-6.1-27.9-15.5-55.1-28-80.8
		c11.8-0.3,23.5-0.2,35.3-0.2c0.1-4.9,0-9.7,0.1-14.6C744.4,311.1,714.9,311.8,685.3,311.6 M78.6,675.4c-14.5,9.9-29,19.6-43.4,29.6
		c0.8,1.2,1.7,2.4,2.5,3.6c16.8-11.6,33.8-22.8,50.6-34.3C85,674.2,81.4,673.4,78.6,675.4 M726.8,680.6
		c19.3,13.2,38.7,26.4,58.3,39.2c0.5-1.3,1.1-2.6,1.6-3.9c-19-12.9-37.9-26.1-57.1-38.6C728.7,678.4,727.7,679.5,726.8,680.6
		 M2.6,748.4c0.8,1.1,1.7,2.1,2.5,3.2c31.4-21.6,62.4-44.1,93.7-65.9c-0.9-1.3-1.7-2.6-2.6-3.8C65,704.1,33.8,726.2,2.6,748.4
		 M721.2,689.7c-0.8,1.3-1.7,2.6-2.5,3.9c32.9,23.1,65.6,46.3,98.4,69.5c0.8-1.1,1.6-2.2,2.4-3.3C787,736.1,754,713,721.2,689.7
		 M709.4,706.3c36.7,26,73.5,52,110.3,77.9c0.8-1.1,1.7-2.2,2.5-3.3C785.4,755,749,728.5,712,702.8
		C711.2,704,710.3,705.1,709.4,706.3 M40.1,765.6c1,1,2,2,3.1,2.9c24.6-19.1,49-38.4,73.5-57.6c-0.9-1.2-1.8-2.4-2.8-3.7
		C89.3,726.8,64.6,746.1,40.1,765.6 M700.2,718c26.2,20.6,52.5,41.1,78.7,61.8c1.1-1,2.2-1.9,3.4-2.9
		c-21.2-16.8-42.5-33.6-63.8-50.4c-5.1-4-9.9-8.4-15.5-11.7C702,715.9,701.1,716.9,700.2,718 M33.8,803.6c0.9,1.1,2,2.1,3,3
		c30.4-27.1,60.7-54.4,91.2-81.5c-1-1.2-2-2.4-3-3.6C94.7,748.9,64.3,776.3,33.8,803.6 M688.8,731.6c32.3,28.6,64.4,57.5,96.5,86.2
		c1-0.9,2.1-1.8,3.1-2.7c-32-29.2-64.4-58-96.6-87C690.9,729.3,689.8,730.5,688.8,731.6 M40.5,814.5c1,0.8,2.1,1.6,3.1,2.3
		c31-27.5,61.5-55.4,92.2-83.2c-1.1-1.2-2.2-2.3-3.4-3.3C102,758.7,70.8,786.1,40.5,814.5 M681.2,740.1c32.3,29.5,65,58.7,97.4,88.2
		c1.1-0.9,2.2-1.9,3.2-3c-32.6-29.5-65-59.2-97.6-88.7C683.1,737.8,681.7,738.6,681.2,740.1 M82.1,806.3c1,1,2,2,3,3
		c20.7-21,41.2-42.3,61.8-63.5c-0.4-1.5-2.1-2.4-3-3.5C123.3,763.7,102.6,784.9,82.1,806.3 M670.2,751.6
		c22.2,23.1,44.6,45.9,66.8,68.9c1.1-1,2.1-2.1,3.2-3.1c-22.5-23.1-44.8-46.4-67.2-69.5C672,749.1,670.3,750.1,670.2,751.6
		 M76,843.7c1,1,2.1,2,3.3,2.9c26.3-30,52.6-60,78.9-90.1c-1.1-1.1-2.2-2.2-3.2-3.2C128.5,783.4,102.5,813.8,76,843.7 M659.5,762.7
		c27.9,31.8,55.7,63.6,83.5,95.3c1-1,2.1-2,3.1-2.9c-28.2-32.1-56-64.5-84.2-96.5C661.2,759.8,658.1,761,659.5,762.7 M120.8,817
		c-7.3,8.5-15,16.7-21.9,25.5c1.1,0.8,2.2,1.6,3.4,2.4c22.6-25.9,45.3-51.6,67.8-77.5c-1.1-1-2.2-2.1-3.2-3.1
		C151.4,781.8,136.2,799.4,120.8,817 M646.6,772.5c24.5,27.8,49,55.7,73.3,83.7c1.2-0.8,2.4-1.7,3.6-2.5
		c-24.4-28.2-49-56.2-73.4-84.4C648.9,770.3,647.7,771.3,646.6,772.5 M178.4,774.5c-7.9,10.3-16.7,19.8-24.6,30
		c1.1,0.9,2.3,1.8,3.4,2.7c8.4-10,16.9-19.8,25-30C181,776.3,179.7,775.4,178.4,774.5 M634.4,781.9c10.1,12.3,20.4,24.4,30.6,36.6
		c1.2-0.9,2.3-1.7,3.5-2.6c-10-12.4-20.3-24.4-30.4-36.7C636.9,780.1,635.7,781,634.4,781.9 M190.4,783.8
		c-10.7,17.1-21.5,34.1-32.2,51.2c1.1,0.9,2.2,1.7,3.4,2.6c11-17,21.9-34.2,32.6-51.4C192.9,785.5,191.6,784.6,190.4,783.8
		 M622.4,790.9c10.4,16,20.3,32.3,30.8,48.2c1.2-0.8,2.4-1.6,3.6-2.4c-10.4-16-20.4-32.4-30.7-48.5
		C624.8,789,623.6,789.9,622.4,790.9 M145.6,888.2c1.3,0.6,2.5,1.2,3.8,1.8c19.1-31.5,37.9-63.2,57.2-94.5c-1.2-1-2.4-1.9-3.7-2.8
		C183.8,824.5,164.7,856.3,145.6,888.2 M609.6,799.3c18.6,30.7,37.2,61.4,55.7,92.2c1.3-0.6,2.6-1.2,3.9-1.7
		c-18.5-31-37.2-61.8-55.6-92.8C612.1,797.6,610.8,798.4,609.6,799.3 M154.6,903.9c-1,1.6-2.1,3.2-2.4,5.2c0.8,0.4,2.4,1.2,3.2,1.7
		c21.7-35.5,42.9-71.3,64.7-106.7c-1.2-0.9-2.5-1.7-3.7-2.6C195.6,835.4,175.3,869.8,154.6,903.9 M596,807.4
		c21.1,34.9,42.1,69.9,63.4,104.8c1.2-0.6,2.3-1.2,3.5-1.8c-14.7-25-29.9-49.8-44.7-74.7c-6.4-10-11.7-20.6-18.7-30.2
		C598.4,806.1,597.2,806.7,596,807.4 M186.8,889.2c1.4,0.3,2.7,0.6,4.1,0.9c14.4-26.1,28.3-52.5,42.4-78.8c-1.3-0.7-2.6-1.4-3.9-2.1
		C215.2,835.8,200.8,862.4,186.8,889.2 M582.5,814.9c13.9,25.5,27.3,51.3,41.4,76.7c1.4-0.3,2.7-0.7,4.1-1
		c-13.7-26-27.7-51.8-41.5-77.8C585.2,813.5,583.8,814.2,582.5,814.9 M243.9,816.8c-17,37.1-33.8,74.2-50.6,111.4
		c1.3,0.5,2.6,1,3.9,1.5c16.8-36.9,34-73.6,50.4-110.7C246.4,818.2,245.2,817.5,243.9,816.8 M565.8,823.1
		c16.1,35.4,32.4,70.7,48.5,106.1c1.4-0.4,2.7-0.8,4.1-1.3c-16.1-35.5-32.3-71.1-48.4-106.6C568.6,821.8,567.2,822.4,565.8,823.1
		 M256.2,823.1c-16.7,36.6-32.9,73.3-49.4,110c1.2,0.5,2.4,1.1,3.7,1.7c16.8-36.7,33.5-73.5,49.8-110.4
		C258.9,823.9,257.5,823.5,256.2,823.1 M555.2,827.8c16.3,36.1,32.6,72.3,48.9,108.4c1.3-0.5,2.6-1,3.9-1.4
		c-16.2-36.3-32.5-72.5-48.7-108.8C558,826.6,556.6,827.2,555.2,827.8 M241.7,909.3c1.3,0.5,2.6,1,3.9,1.6
		c10.2-26.4,19.7-53,30-79.3c-1.4-0.8-2.7-1.5-4.1-2.3C261.5,855.9,251.5,882.6,241.7,909.3 M539.6,833.9
		c9.9,26.1,19.3,52.3,29.6,78.2c1.3-0.4,2.6-0.7,3.9-1.1c-9.8-26.3-19.3-52.7-29.5-78.8C542.3,832.8,541,833.3,539.6,833.9
		 M285.1,837.9c-11.2,36.2-22.8,72.2-34,108.4c1.3,0.3,2.7,0.7,4.1,1c11.7-37,23.7-73.9,35.1-111c-1-0.3-3-1-4-1.3
		C285.9,836,285.5,836.9,285.1,837.9 M524.6,839c11.5,36.6,23.4,73,34.6,109.6c1.4-0.1,2.9-0.3,4.3-0.4
		c-11.2-36.9-23.1-73.7-34.6-110.5C527.5,838.1,526.1,838.5,524.6,839 M301.4,840c-9.9,32-20.3,63.9-29.9,95.9
		c0.9,0.1,2.8,0.4,3.8,0.5c2-4.3,3.2-8.8,4.6-13.3c8.8-27.2,17.2-54.5,26-81.6C304.4,840.9,302.9,840.4,301.4,840 M509.3,843.1
		c9.5,31.9,20,63.4,29.9,95.1c1.4-0.4,2.7-0.7,4.1-1c-9.7-31.6-20-63-29.5-94.6C512.3,842.7,510.8,842.9,509.3,843.1 M316.7,844.3
		c-3.4,11.7-6.9,23.2-10,35c1.3,0.2,2.7,0.4,4,0.7c4-11.3,6.9-23,10.3-34.5C319.5,845,318.1,844.7,316.7,844.3 M493.8,847.3
		c3.3,11.4,6.7,22.9,10.1,34.3c1.4-0.3,2.8-0.7,4.2-1c-3-11.5-6.6-22.9-9.8-34.4C496.7,846.6,495.2,846.9,493.8,847.3 M331.2,847.7
		c-2.2,15.4-4.5,30.7-6.6,46.1c1.4,0.3,2.9,0.6,4.3,0.9c2.3-15.3,4.5-30.6,6.8-45.9C334.2,848.4,332.7,848.1,331.2,847.7
		 M475.5,850.7c2.2,14.7,4.4,29.4,6.5,44.1c1.4-0.3,2.9-0.6,4.3-0.9c-2-14.6-4.1-29.2-6.3-43.7C478.6,850.3,477,850.5,475.5,850.7
		 M346.9,850.9c-3.9,32.1-8,64.2-11.5,96.3c1,0.1,3.1,0.2,4.1,0.3c4.1-32.1,8-64.1,11.9-96.2C349.9,851.2,348.4,851,346.9,850.9
		 M363.1,853c-4.8,37-9.1,74-13.5,111.1c1.4,0.1,2.7,0.2,4.1,0.4c4.7-36.9,9.2-73.9,13.8-110.8C366,853.4,364.6,853.2,363.1,853
		 M459.9,852.9c3.6,31.6,7.7,63.1,11.6,94.6c1-0.1,3.1-0.2,4.1-0.3c-3.4-31.6-7.6-63.1-11.3-94.7
		C462.8,852.6,461.4,852.8,459.9,852.9 M379,854.8c-1.6,26.2-3.5,52.4-5.3,78.6c1.5,0,3-0.1,4.4-0.1c1.8-26.1,3.6-52.3,5.5-78.4
		C382.1,854.9,380.5,854.8,379,854.8 M443.6,854.5c4.5,36.6,9,73.2,13.6,109.8c1.4-0.1,2.8-0.1,4.2-0.2
		c-4.2-36.6-8.9-73.1-13.1-109.7C446.7,854.5,445.2,854.5,443.6,854.5 M396.2,855.7c-0.1,37.1,0.1,74.2,0,111.3c1.4,0,2.8,0,4.2,0
		c0-37,0.5-74.1,0.4-111.1C399.2,855.8,397.7,855.7,396.2,855.7 M410.2,855.9c-0.1,37,0.5,74.1,0.4,111.1c1.4,0,2.8,0,4.2,0
		c-0.1-37.1,0.1-74.1,0-111.2C413.3,855.8,411.7,855.8,410.2,855.9 M427.5,855.5c1.9,26,3.3,52.1,5.7,78.1c1-0.1,3.1-0.2,4.1-0.3
		c-1.6-26-3.5-51.9-5.2-77.8C430.5,855.5,429,855.5,427.5,855.5 M290.1,194.2c53.7-22.2,113.7-28.9,171-19.7
		c73.6,11.4,142.4,50.1,190.8,106.6c24.4,28.3,43.9,60.8,56.9,95.9c26.6,70.8,27.2,151.2,0.4,222c-7.7-6.1-15.4-12.3-23.2-18.1
		c-6.8-4.6-14.2-8.3-21-12.9c-10.5-7.7-15.9-19.9-24.5-29.4c-13.1-11.2-25.6-23.1-37.6-35.5c-4.1-4.7-11.1-5.2-15.5-9.6
		c-7.9-7.5-16-14.6-23.4-22.6c-6-6.5-8.1-15.6-13.4-22.6c-3.1-4.2-6-8.6-9.4-12.6c-3.8-1.6-8.1-2.1-11.5-4.5
		c-3.7-2.6-6.6-6.2-10.3-8.7c-7-3.8-15.3-4-22.4-7.6c-3.7-1.9-8-3.1-11.3-5.6c-2.7-7.1-8.3-12.5-14.1-17.2c-3.9-2.4-8.7-3-12.8-5
		c-2.4-2.9-4.1-6.5-7.4-8.5c-6.8-4.2-14-7.8-20.6-12.4c-5.3-3.7-10.3-7.9-15.7-11.5c-6.9,1.8-14.1,2.4-21,4.5
		c-9.8,7.5-17.3,17.5-27.3,24.7c-5.7,4.7-12.4,8.4-17.1,14.1c-7.8,10.6-15.7,21.2-22.6,32.4c-3.6,5.9-9.3,10-14.8,14
		c-10.2,5.2-21,8.9-31.6,13.2c-5.5,2.4-9.5,7.3-15.4,8.7c-12.4,2.6-24.6,6.1-36.2,10.9c-6.3,4.6-11.9,10.2-16.6,16.5
		c-3.6,4.4-6.6,9.5-11.6,12.5c-7.6,4.5-14.4,10.2-21,15.9c-11.8,10.4-25.3,18.7-37.8,28.1c-5.3,3.9-10.6,8-15.8,12.1
		c-3.8,3.1-5.6,7.8-8.3,11.7c-3.1,4.5-6.5,8.9-9.9,13.2C81.6,507.6,89.1,417.4,127.8,343C162.1,276.3,220.6,222.5,290.1,194.2
		 M400,211.3c0.8,14.6,1.4,29.1,2,43.7c0.3,4.7-8.2,5.3-8.3,0.5c-1.4-14.5-2.2-29.1-3.7-43.6c-2.4,0.1-4.8,0.4-7.2,0.7
		c1.4,14.2,3,28.4,4.5,42.6c0.2,2.7,1.1,5.6,3.5,7.1c3,1.9,6.8,1.5,10.2,1.2c3.7-0.5,7.3-3.5,7.1-7.5c0-15-0.3-30-0.8-45
		C404.8,211.1,402.4,211.2,400,211.3 M433,211.8c-1.4,17.2-2.6,34.3-3.7,51.5c1.6,0.1,3.1,0.2,4.7,0.3c1.3-12.3,2.4-24.6,3.3-36.9
		c3.3,12.5,5.3,25.3,7.1,38c2,0.3,4,0.7,6.1,1c2.9-17,5.6-34,8.5-51c-2.2-0.5-4.4-0.8-6.7-0.8c-1.5,12.1-3.5,24.1-5,36.2
		c-1.8-10.7-3-21.6-5.2-32.3c-0.5-1.8-0.3-4-1.5-5.5C438.2,212,435.6,212,433,211.8 M344.6,218.7c-4.5,1.1-9.4,4.9-8,10.1
		c3.2,11.7,6.7,23.2,10,34.8c0.8,3,3.1,5.8,6.4,6.3c4.1,0.5,8.7-0.5,11.9-3.2c2.5-2.1,2.6-5.7,2-8.7c-2.2-11.1-4.4-22.1-6.5-33.2
		c-0.4-2.5-1.7-5.2-4.1-6.3C352.5,216.8,348.3,217.7,344.6,218.7 M483.5,220c-4.1,16.7-8.7,33.4-12.8,50.1c4.5,1.1,8.8,2.8,13.3,3.5
		c3.9,0.5,7.6-2,8.8-5.6c3.9-11,7.9-22,11.7-33c1.8-4.6-1.9-9.1-6.1-10.7C493.6,222.4,488.6,221.1,483.5,220 M303.1,233.2
		c-5.5,1.5-10.6,4.4-15.7,6.8c7.4,15.6,15.4,31,23,46.5c1.9-0.8,3.8-1.7,5.6-2.7c-3.3-7.1-6.6-14.1-9.9-21.2c1.5-0.6,3-1.3,4.5-2
		c5,6.2,9.3,12.9,13.6,19.7c2-0.8,4.1-1.6,6.1-2.4c-4.4-7.1-9.1-14-14.2-20.6c1.9-2.1,3.3-4.8,2.5-7.6c-1.5-4.4-3.1-8.7-5-12.9
		C311.7,232.7,306.8,232.1,303.1,233.2 M531.2,236.8c-7.2,15.6-14.3,31.3-21.7,46.8c1.8,1,3.6,1.9,5.5,2.8
		c7.7-15.5,15.6-30.9,22.9-46.6C535.6,238.8,533.4,237.7,531.2,236.8 M561,252.6c-9.1,14.7-18.2,29.4-27.2,44.1
		c1.4,0.9,2.8,1.7,4.3,2.6c6.9-10.4,13.4-21.1,20.5-31.4c-3.6,12.6-7.3,25.2-11.6,37.6c1.7,1.1,3.3,2.3,5,3.6
		c10.5-13.7,20.9-27.5,31.3-41.3c-1.8-1.4-3.6-2.8-5.4-4.1c-7.3,10-14.5,20.1-21.8,30.2c4.3-12.2,8.6-24.4,12.1-36.8
		C565.8,255.6,563.5,254.1,561,252.6 M258,257.1c-5.2,2.6-9.8,6.4-14.5,9.8c10.4,13.9,20.6,27.8,31.2,41.5c1.7-1.3,3.3-2.6,4.9-3.9
		c-4.7-6.2-9-12.7-13.6-19c1.4-0.9,2.7-1.9,4-2.9c6.2,5.1,11.7,11,17.1,16.8c1.9-1.2,3.8-2.4,5.7-3.6c-5.6-6.2-11.4-12.2-17.8-17.5
		c1.5-2.5,2.5-5.8,1-8.5c-2.1-3.8-4.4-7.5-6.8-11.1C266.8,255.1,261.6,255.2,258,257.1 M217.7,289c10.1,10.7,20.4,21.2,30.4,32
		c2.4,2.6-0.6,5.9-3.1,7c-2.3,0.6-3.8-1.4-5.2-2.7c-9.7-9.6-19.8-18.9-29.4-28.6c-2.2,1.7-3.9,3.8-5.6,5.9
		c10.9,9.6,21.4,19.7,32.2,29.3c2.2,2.2,5.6,2.8,8.5,1.8c3.5-1.6,6.5-4.4,8.4-7.8c1.9-3,1.4-7.2-1.1-9.8
		c-9.7-10.9-19.6-21.5-29.3-32.5C221.5,285.3,219.6,287.1,217.7,289 M596.7,291.7c-7.8,8.6-15.8,17.1-23.5,25.8
		c-5.4,6.6,2.2,16.1,9.6,16.3c-0.2,1.4-0.4,2.9-0.6,4.3c1.7-0.1,2.8-1.6,4.1-2.7c4.9-4.7,10.2-8.9,14.9-13.8c-2.9-2.9-5.5-6-8.6-8.7
		c-1,1.1-2,2.1-2.9,3.2c1.1,1.2,2.3,2.3,3.4,3.5c-2.8,2.8-5.6,5.6-8.5,8.2c-3.4,3-9.3-2.8-6.1-6.2c8.1-8.5,16.4-16.9,24.5-25.5
		c3.3-4,9.6,1.9,8.2,5.8c-2.3,2.8-5,5-7.5,7.6c1.3,1.5,2.7,3,4.1,4.5c2.9-2.8,6.3-5.1,8.7-8.4c2.3-3.3,0.7-7.5-1.6-10.4
		c-2.8-3.3-6.3-6.5-10.7-7.2C601.1,287.6,598.5,289.5,596.7,291.7 M182.2,330.2c-3.3,4-6.5,8.5-6.8,13.8c0.1,4.3,4.2,6.3,7.4,8.2
		c2.6,1.4,5,3.7,8.2,3.6c6.3-1.4,11.7-5.4,18-6.8c4.2,1.2,7.6,4.4,10.9,7.1c1.2,3.6-2.9,9.2-6.8,7c-3.2-1.8-6.2-4-9.3-5.9
		c-1.2,1.8-2.4,3.6-3.6,5.4c3,2.2,6.2,4,9.4,6c2.1,1.3,4.8,2,7.1,1c4.1-1.7,6.5-5.7,8.4-9.5c1.8-3.6,1.4-8.6-2.2-10.9
		c-3.8-2.5-7.1-6.6-11.9-7.2c-6.7,1-12.3,5.2-18.8,6.7c-3.2-1.2-5.9-3.5-8.8-5.3c-1.9-0.9-1.9-3.4-0.9-5c1.2-2.2,2.8-4.9,5.6-5
		c3.5,1.4,6.2,4.1,9.3,6.1c1.4-2,2.9-4,4.4-6c-3.2-2.4-6.1-5.1-9.6-7C188.4,324.8,184.6,327.5,182.2,330.2 M627.5,330.6
		c-2.1,1.8-5,3.1-5.9,5.9c-1.2,6.4,0.7,13-0.8,19.3c-2,2.4-4.9,3.8-7.4,5.5c-1.4,0.8-3.3,2.5-4.9,1.2c-2.4-1.6-5.1-5.7-2.2-8.1
		c2.9-2.4,6.1-4.4,9.1-6.7c-1.2-1.8-2.4-3.5-3.7-5.2c-3.5,2.6-7.2,5-10.3,8c-2.5,2.3-2.7,6.1-1.2,9c1.7,3.7,4.2,7.3,7.8,9.4
		c3.4,1.8,7.1,0,10-2c2.9-2,6.6-3.3,8.4-6.5c2.2-6.5,0-13.4,1.1-20c1.1-2.4,3.9-3.4,5.8-5.1c1.8-1.1,3.9-3.6,6.1-1.8
		c2.2,1.9,4.9,5.2,3.4,8.3c-2.6,2.5-5.9,4-8.8,6.1c1.3,2.1,2.6,4.1,3.9,6.2c3.3-2.1,6.8-3.8,9.9-6.3c3.1-2.9,2-7.7,0.2-11
		c-2.4-4.4-5.4-9.1-10.3-10.9C633.7,325,630.6,328.4,627.5,330.6 M641.1,365.2c-3.3,0.8-3.9,6-1,7.7c2.4,1.8,6.2,0,6.6-2.9
		C647.5,366.9,644,364.2,641.1,365.2 M180.2,366c-2.6,1.7-2.6,6.1,0.2,7.5c2.6,1.7,6.3-0.5,6.5-3.5
		C187.1,366.6,183.1,364.5,180.2,366 M347,223.1c2.4-1.1,6-0.1,6.2,2.9c2.6,11.2,5,22.5,7.6,33.8c1.8,4.5-6.2,7.4-7.8,3
		c-3.3-11.6-6.2-23.3-9.2-35C342.8,225.6,344.9,223.6,347,223.1 M489.3,226.6c2.8,0.9,6.6,1,8.2,3.8c0.8,1.1,0,2.5-0.2,3.7
		c-3.3,10.1-6.6,20.2-9.9,30.3c-0.5,1.6-1.3,3.7-3.3,3.9c-2.1,0-4.1-0.9-6.2-1.5C481.5,253.4,485.6,240.1,489.3,226.6 M296.1,241.3
		c2.8-1.2,5.6-3.1,8.8-2.9c2.7,1,3.1,4.2,4.3,6.5c1,2.9,3.2,5.7,2.7,8.9c-1.9,2.5-5.1,3.4-7.8,4.7
		C301.5,252.8,298.9,247,296.1,241.3 M252.6,266.4c3.1-1.7,6.8-6.3,10.4-3.4c2.7,3.8,5.7,7.7,7.5,12.1c-0.7,3.6-4.5,4.9-7.1,7
		C260,276.7,256.1,271.7,252.6,266.4 M395.3,362.3c5.5-2.1,11.4-2.4,17-3.8c0.2,3.9,1.5,7.7,2.1,11.6c0.6,3.1-1,5.9-1.4,8.9
		c-0.6,4-0.2,8.1-1.1,12.1c-0.8,3.6-1.8,7.2-1.2,10.9c0.5,4.8,0.3,10,3.1,14.1c4.5,6.6,7.1,14.4,9.1,22.1c-1,2.7-3.1,4.7-4.7,7.1
		c2.9,6.6,1.9,14.1-0.5,20.6c-2.1,3.9-6,6.9-7.4,11.2c-0.6,3.3-0.4,6.6-0.1,9.9c0.4,3,3.6,4.3,5.6,6.2c3,2.1,3.7,6,4.9,9.2
		c-4.5,3-8.9,7.1-10.1,12.6c0.2,2.6,0.9,5.2,1.3,7.8c1.4-0.1,2.8-0.3,4.3-0.4c1.3-4.1,2-8.7,5-12.1c4.4-5.9,11.5-9.9,13.8-17.2
		c-0.5-4.1-2.2-7.9-2.9-11.9c-0.4-5.7,1-11.8,4.9-16.1c0-3.7,0.1-7.4,0-11.2c-2.7-3.8-5.6-8-5-13c3.9,3.4,7.6,7,11.5,10.5
		c1.9,1.8,4,3.4,4.9,5.9c1.9,5.1,4.1,10.2,6.8,14.9c-2.8,4.7-6,9.1-9.5,13.3c-2,2-1.8,5-2.3,7.6c7.9-0.1,15.5-2.7,22.7-5.7
		c3,1.4,6.1,2.9,9.1,4.4c-1.2,5.3-2.7,10.6-4.5,15.8c-3.6-3-6.7-7.2-11.6-7.6c-0.8,2.6-1.8,5.2-2,8c0.7,4.5,2.8,8.6,3.4,13.1
		c-2.6,4.7-5.6,9.2-8.9,13.4c-3.2,0.9-6.5,1-9.7,1.6c-0.9,3.4-0.5,6.9,1,10c2.1,4.2,2,9.2,1,13.8c-2.5,2.9-5.4,5.5-8,8.3
		c-1.9,0.3-3.8,0.7-5.7,1.1c-1.9,5.4-4.4,11-3.2,16.9c0.3,4.9,4.6,8,7.3,11.6c-1.3,4.2-2.5,8.4-3.9,12.5c-3.8-2.8-3.8-7.9-4.7-12
		c-2.3-3.1-5.6-5-8.7-7.2c0.3-7.1,0.3-14.2,1.8-21.2c3.3-6.5,9-11.7,11.4-18.7c-0.6-2.8-3.2-4-5.7-4.8c-2-5.8-4.7-11.4-9-15.9
		c-2.9-0.1-5.7,0-8.6,0c-2.6-3.2-5.2-6.5-7.5-10c-1-1.6-2.3-3.1-4-4c-4.3-2.4-8.6-5.4-13.7-5.6c-4-0.2-8-0.2-12,0.3
		c-2.5,3.5-3,8.4-6.4,11.3c-4.1,3.4-9.6,4.2-14.7,5.1c-1.1-0.7-2.3-1.4-3.5-2.2c5-4,9.7-8.5,13-14c-1.1-2.7-2-5.5-2.8-8.2
		c-10.3-3.9-21.1-5.9-31.5-9.4c-4.3-1.5-7.8-4.4-11.1-7.5c5.9-4.9,13.5-6.4,20.8-7.7c3.1-3.6,6.3-7.4,7.4-12.1
		c-2.4,0.1-4.7,0.1-7.1,0.1c-3.3-4.5-7.3-8.5-12.2-11.3c-2.5,1.7-5,3.6-6.4,6.4c-4.1,8-9.1,15.5-14.4,22.8c-6.7-1-13.4-2-20.1-2.2
		c-4.8-0.1-9.1,2.4-13.9,2.2c-9.1-0.3-18.2-0.5-27.2-2.4c-3.2,0.3-6,2.1-8.9,3.2c-0.4,4.3-0.8,8.7-1.2,13c-0.1,4.6-4.5,7.5-5.3,11.9
		c0.1,2.9,1.4,5.6,2.6,8.2c1.9-0.8,3.8-1.6,5.8-2.4c0.9,2.1,1.8,4.2,2.7,6.3c-4.7,3.4-10.6,5.4-14.4,10c-3.9,4.5-7.3,9.3-11.2,13.8
		c-2.2,2.7-4.7,5.5-5.3,9.1c-1,5.4-5.3,9-8,13.5c-2.8,5.2-3.2,11.1-3.2,16.9c-2.2,1.7-4.4,3.2-6.7,4.8c3,3.4,7.1,5.5,11.6,6.2
		c7.9-9.2,17.5-17,23.5-27.6c5.1-8.1,7.7-17.7,14.3-24.8c5.3-5.3,10.5-10.6,15.9-15.8c1.4,1.3,2.7,2.7,4,4.1
		c-3.5,3.5-6.8,7.3-10,11.1c1.4,2.3,2.9,4.5,4.4,6.7c-0.7,5.6-1.6,11.2-1.7,16.8c0.3,3.3,2.4,6.2,3.8,9.1c-1.1,2.3-2.3,4.5-3.1,6.9
		c0.2,5.4,2.1,10.7,5.6,14.9c2.7-0.8,5.4-1.4,8-2.2c-0.2,2.1-0.4,4.3-0.6,6.4c-6.7,6.5-13.4,13.1-19.4,20.3c1.8,0.9,3.5,2,5.2,3.2
		c-5.5,7.9-16.6,8.5-21.9,16.5c-1.9,3.1-5.4,5.8-5.1,9.8c-0.7,6.7-0.8,13.5-2.5,20.1c-2.3,3.8-5.9,6.6-9.1,9.5
		c-0.7,0.6-1.2,1.3-1.3,2.3c-1.7,6.5-2.1,13.3-2,20.1c-1.1,7.4-5.4,14-10.2,19.6c-6.5-5.8-12.9-11.7-18.5-18.5
		c0.6-4.5,4.2-7.9,5.4-12.2c2.5-6.4,1.6-14.2,6.4-19.6c1.5-2.1,3.6-3.9,4.8-6.2c0-2.7-0.2-5.4-0.3-8.1c-4.5,2.9-8.4,6.8-11.1,11.5
		c-2.2,0.4-4.4,0.7-6.6,1.1c0.7-3,1-6.2,2.8-8.7c4-5.9,8-11.8,12.6-17.3c2.8-3.2,2.9-7.6,3.6-11.5c1.3-7.6,0.3-15.6,3.2-22.9
		c0.6-1.6,1.7-3.1,2-4.8c-1.2-2-2.5-3.9-3.7-5.9c-4.2-1.5-8.7-2.4-12.8-4.3c-2.7-2-4.6-4.9-6.6-7.5c3.3-7.7,7.7-15.2,8.1-23.8
		c1.6-6.2,7.9-9.6,10.3-15.3c1.8-7.4,3.2-14.8,5.2-22.1c-1.9-1.4-3.9-2.8-5.8-4.1c-2.8,5-5.5,10.1-9.5,14.4c-1.1-3-2.9-6-2.1-9.4
		c-2.8,1.2-5.8,2.2-8.8,3c6.2-6.1,13-11.6,19.9-16.9c5.1-4,11.3-6.5,15.3-11.8c6.4-8.3,12.7-17.3,21.8-23
		c11.2-4.3,22.7-7.8,34.4-10.3c6.7-1.2,11.1-6.9,17.3-9.3c10.4-4.1,21-7.8,30.9-12.9c5.7-4.2,11.8-8.4,15.6-14.6
		c6.7-11.1,14.5-21.4,22.1-31.9c1.6-2.3,3.8-4.2,6-5.9c6.9-5.4,14.3-10.3,20.6-16.4C384.1,373.1,389.2,367.1,395.3,362.3
		 M366.5,394.5c-7.9,6.1-14.6,13.7-19.8,22.3c1.7,1.4,3.3,2.9,5,4.3c-5.7,5.9-13.1,9.9-18.5,16.1c-3.9,4-8,7.8-10.9,12.6
		c2.2,1.2,4.3,2.4,6.5,3.6c4.1-4.9,9.4-8.4,14.7-11.9c3-2,7-1.7,9.6-4.4c5.6-4.5,8.2-11.6,13.3-16.5c1.3,5.9,0.7,12.1-1.1,17.8
		c-3.8,11,0.7,22.9-3,33.9c-3,6.6-8.7,11.3-13.1,16.9c0.9,0.8,2.1,2.7,3.4,1.3c3.3-2.1,5.4-5.3,8-8.1c4-4.3,8.7-8.2,11.1-13.7
		c-1.5-4-2.6-8.7-0.6-12.7c3.2-6.1,6.5-12.1,10.5-17.6c2.7-3.8,6.9-6.6,8.4-11.1c-1.4,0-2.9-0.1-4.3-0.1c0-2.5,0-5,0.7-7.3
		c1.2-5.4,6.3-8.5,8.3-13.5c-4.4-0.1-8.8,0.4-13.2,0.4c-0.1-0.7-0.2-2.2-0.3-2.9c2.7-3.9,7.3-5.9,10-9.7c-2-0.7-3.9,0-5.4,1.4
		c-2.7-0.8-5.3-1.8-7.9-2.7c2.3-3.2,4.5-6.6,5.8-10.3C376.6,384.2,372,390.2,366.5,394.5 M532.1,485.2c10.3,5.4,21.1,10.9,28.6,20.2
		c2.8,3.8,7.4,5.3,11.3,7.5c-1.1,6.9,1.5,13.5,3.4,20c-3,9.3-2.7,19.2-2.5,28.9c-1.7,1.5-3.3,3.1-5,4.6c-2.1-0.8-5-1-6.2-3.3
		c-3.7-5.7-7.5-11.5-10.1-17.9c-2.2-5.5-0.2-11.7-2.5-17.2c-2.4-5.9-7.6-10.1-10.5-15.6c-2.3-4.3-5.3-8.1-8.1-12.1
		C530.3,495.1,531,490.1,532.1,485.2 M134.8,559.8c5.6-4.4,11.3-8.6,17.1-12.8c1.2,0.8,2.5,1.5,3.7,2.2c-1.5,4-2.7,8.3-5.7,11.6
		c-2.3,2.7-5,4.9-7.5,7.3c0.2,10.1,1.2,20.3-1.2,30.2c-2.7,7.2-7.5,13.6-9.6,21c-1.3,5.1-2.5,10.2-4,15.3
		c-7.2-13.9-13.2-28.5-18.5-43.2c4.7-7,10.6-13.2,14.6-20.7C126.1,565.9,130.8,563,134.8,559.8 M622,589c7-5.7,13.7-11.9,21-17.3
		c0.2,11.6-1.8,23-3.8,34.4c-2.3,7.8-5.3,15.5-9.5,22.5c-4.5,7.4-7,15.7-10.4,23.6c-3.5,7.9-4.5,16.6-7.2,24.7
		c-0.8,2.8-3.1,4.8-4.9,7c-3.5,3.9-6.8,8.1-10.6,11.7c-6.9,5.3-15.2,8.3-22,13.8c-5.5,4.5-11.1,9.2-14.5,15.5
		c-3.8,5.6-4.9,12.3-7.8,18.3c-4.5,5.8-10.8,9.9-15.4,15.6c-2.6,3.4-4.3,7.5-7.4,10.4c-5.9,5.4-11.8,10.9-17.6,16.5
		c-1.2,1.1-2.5,2.4-4.1,3c-9,3-18.3,5-27.7,6.9c-5.1,0.6-8.1,5.9-13.2,6.6c-18.3,3.2-37,5-55.6,4.9c1.3-5.4,2.7-10.7,4-16
		c5.7-3.5,10.7-8.8,17.6-9.7c12.8-2,25.4-4.9,37.9-8c7.5-1.9,15.4-0.9,23.1-2c3.8-0.6,7.4-1.6,11.1-2.5c0-3.3-0.2-6.7,0.1-10
		c3.1-5,5.4-10.9,10.5-14.2c4.6-3.1,9-6.4,13.5-9.5c6.2-4.2,14.4-4,20.5-8.4c3.9-2.8,7.8-5.5,11.6-8.4c2.1-5,4.7-10,5.1-15.5
		c-0.2-11.4-1.1-22.8-3.7-33.9c-4.7-8.7-11.5-16.9-12.1-27.1c0.6-5.7,1.6-11.3,3.1-16.9c0.3-1.6,1.3-2.8,2.3-4
		c5.1-6.3,10-12.8,14.2-19.8c0.5-1.3,2-1.6,3.2-2c5.2-1.6,10.4-3.3,15.5-5c7.7-2.8,16,0.1,23.9-2C616,591.5,619.3,591,622,589
		 M665.8,603.8c0.7-1.6,1.6-3.2,2.6-4.6c8.2,2.9,16.5,5.7,23.9,10.4c4.1,2.2,6.5,6.4,8.8,10.2c-2.3,4.7-4.3,9.5-7.2,14
		c-3.6-5.2-4.5-11.7-6.1-17.8c-5.9-1.8-12-3.1-17.9-5C668,609.1,667.3,606.1,665.8,603.8 M327.2,637.3c7.5-6.3,13-14.6,18.6-22.5
		c3.1,1.2,6.3,2.2,9.4,3.7c-4.1,3.3-8.3,6.5-12.4,9.7c2,3.9,6.7,9.1,2.7,13.3c-2.4,4.7-8.3,4.8-11.8,8.2c-2,3.1-2.8,6.8-4.3,10.1
		c1.9,6.2,5.3,11.8,8,17.6c1,6-1.2,11.9-3.9,17.2c-3.7,6.3,0.6,14.2-3.5,20.5c-2.1,3.2-2.4,8.4-6.6,9.5c-3.4,1.3-6.6,3.1-9.9,4.8
		c0.3-5.2,0.4-10.3,1-15.5c-2.4,1.2-5.3,1.6-7.4,3.4c-2.1,3.7-3.3,7.9-4.8,11.8c-1.7,4.1,1.5,8.7-0.8,12.6
		c-3.8,8.2-10.2,14.9-16.6,21.2c-4.2,4.1-5.8,9.8-8.6,14.8c-6.6-3.5-13.4-6.6-19.9-10.3c2-3.9,4-8,6.8-11.4
		c7.9-2.6,14-8.4,20.4-13.3c6.7-7.9,5.7-19,8-28.6c-1.4-0.2-2.7-0.3-4-0.6c-0.9-2-1-4.3-1.5-6.4c8.3-4.3,15.1-10.9,21.8-17.2
		c1.7-6.2,1.8-12.8,1.1-19.1c-2.5,1.2-5.1,2.4-7.6,3.6c-1.4-1.5-2.7-2.9-4-4.4c1.5-0.7,3-1.4,4.5-2.1c0.2-2.3,0.5-4.7,0.7-7
		c-4.9,1.6-9.9,3.1-14.8,4.8c-1.9-1.4-3.8-2.9-5.7-4.4c6.4-2.5,13.9-2.2,19.7-6.5C310,648.5,318.7,643,327.2,637.3L327.2,637.3z"/>
	<path fill="#FFFFFF" d="M396.2,0h4.2c0.1,38.6,0.3,77.2,0.5,115.9c-1.6,0.2-3.2,0.3-4.7,0.5C396,77.6,396.2,38.8,396.2,0 M410.6,0
		h4.2c0,38.7,0,77.3,0.1,116c-1.6,0-3.1,0-4.6,0C410.1,77.3,410.7,38.7,410.6,0 M349.6,3.6c1.4-0.1,2.8-0.1,4.2-0.2
		c4.6,38.4,9.9,76.7,13.9,115.1c-1.5,0-3,0-4.4,0C359,80.1,354.1,41.9,349.6,3.6 M457.1,3.4c1.4,0.1,2.9,0.2,4.3,0.2
		c-4.5,37.9-9.2,75.8-13.7,113.8c-1.5,0-3-0.1-4.5-0.2C447.6,79.2,452.7,41.3,457.1,3.4 M559.4,19c1.4,0.2,2.7,0.4,4.1,0.6
		c-11.6,38.2-23.7,76.3-35.9,114.4c-1.4-0.5-2.8-1.1-4.2-1.6C535.5,94.6,547.5,56.8,559.4,19 M471.1,21c1.4-0.5,2.9-0.8,4.4-1.1
		c-3.3,33.2-7.9,66.2-11.7,99.3c-1.5-0.1-3-0.3-4.5-0.4C463,86.2,467.7,53.6,471.1,21 M251.1,21.5c1.3-0.4,2.7-0.9,4-1.3
		c12.2,38.3,24.6,76.5,36.4,114.9c-1.4,0.4-2.9,0.8-4.3,1.2C275.3,98,263.2,59.8,251.1,21.5 M335.4,20.3c1.1,0,3.1,0,4.2,0
		c4.1,33.4,8.4,66.7,12.3,100.1c-1.5,0.2-3,0.4-4.5,0.6C343.6,87.4,339,53.9,335.4,20.3 M539.1,29.4c1.4,0.4,2.9,0.9,4.3,1.4
		c-10.7,32.7-20.4,65.7-31.3,98.3c-1.4-0.3-2.8-0.6-4.2-1C518.2,95.2,528.9,62.4,539.1,29.4 M271.4,32.1c1-0.3,3-0.8,4-1.1
		c10.6,32.8,21.1,65.7,31.3,98.7c-1.3,0.7-2.7,1.3-4.1,1.9C292.3,98.4,281.7,65.3,271.4,32.1 M553.6,143.2
		c17.1-37.2,33.6-74.7,50.7-111.9c1.1,0.8,2.2,1.5,3.4,2.3c-16.5,37.3-33.3,74.4-49.9,111.7C556.4,144.6,555,143.9,553.6,143.2
		 M207,34.6c0.9-0.4,2.7-1.2,3.6-1.6c17,38,34.4,75.8,51.2,113.9c-1.3,0.4-2.5,0.8-3.8,1.1c-1-0.7-1.2-2.1-1.8-3.2
		c-12.8-28.3-25.4-56.7-38.1-85C214.4,51.3,210.3,43.1,207,34.6 M433,34.4c1.4-0.1,2.8-0.3,4.2-0.4c-1.7,27.5-3.5,54.9-5.6,82.4
		c-1.5,0.1-2.9,0-4.4,0C429,89.1,430.9,61.7,433,34.4 M373.8,34.3c1.5,0,2.9,0.1,4.4,0.1c1.8,27.4,4,54.9,5.7,82.3
		c-1.6,0.2-3.1,0.3-4.6,0.8C377.7,89.8,375.5,62.1,373.8,34.3 M193.4,39.9c1.3-0.6,2.5-1.3,3.8-1.9c17.5,38.1,35,76.2,52.3,114.4
		c-1.4,0.6-2.8,1.1-4.2,1.7C228,115.9,210.8,77.9,193.4,39.9 M564.3,148.1c16.8-36.5,33.1-73.1,50.2-109.4c1.3,0.3,2.6,0.6,3.9,0.9
		c-16.6,36.8-33.3,73.6-50.1,110.3C567,149.3,565.7,148.7,564.3,148.1 M562.9,71.9c2.2-5.6,4-11.3,6.5-16.8c1.2,0.7,2.4,1.5,3.6,2.2
		c-10.1,27.2-20.4,54.4-30.3,81.7c-1.5-0.5-2.9-1-4.3-1.5C546.4,115.6,554.7,93.8,562.9,71.9 M659.2,55.6c1.3,0.6,2.5,1.1,3.8,1.7
		c-21.4,36.1-43.4,72-64.8,108.2c-1.4-0.7-2.7-1.4-4.1-2.2C615.8,127.4,637.5,91.5,659.2,55.6 M241.6,58.5c1.4-0.6,2.7-1.1,4.1-1.7
		c10.4,27.7,20.7,55.4,31.2,83.1c-1.4,0.7-2.9,1.3-4.3,2C262.4,114.1,252.1,86.3,241.6,58.5 M151.3,58.3c1.5-0.1,3-0.2,4.5-0.4
		c22.3,36.2,44,72.8,66.2,109.2c-1.4,0.7-2.7,1.4-4.1,2.2C195.8,132.3,173.6,95.3,151.3,58.3 M475.3,121.1C476.9,105,480,89,482,73
		c1.4,0.2,2.9,0.5,4.3,0.7c-2,16.1-4.6,32-6.7,48C478.5,121.6,476.4,121.2,475.3,121.1 M324.6,73.8c1.5-0.3,2.9-0.5,4.4-0.8
		c2.4,16.7,4.9,33.3,7.3,50c-1.5,0.3-2.9,0.6-4.4,1C329.3,107.3,327.1,90.5,324.6,73.8 M580.8,156.1c14.2-26.8,28.7-53.5,43.1-80.3
		c1.3,0.5,2.7,1,4.1,1.5c-14.5,26.9-28.7,53.8-43.1,80.7C583.5,157.4,582.1,156.7,580.8,156.1 M665.5,76c1.2,0.7,2.4,1.5,3.6,2.2
		c-19.2,31.8-38.3,63.7-57.4,95.6c-1.3-0.7-2.6-1.4-3.8-2.2c6.1-11,13-21.6,19.4-32.4C640,118.1,652.7,97.1,665.5,76 M145.7,79.9
		c1.2-0.8,2.3-1.6,3.6-2.4c19.8,32.6,39.4,65.3,59.2,97.9c-1.2,0.9-2.5,1.7-3.8,2.6C185,145.3,165.6,112.5,145.7,79.9 M186.9,78.8
		c1.4-0.5,2.7-0.9,4.1-1.4c14.6,27.5,29.6,54.8,44.1,82.4c-1.4,0.6-2.8,1.2-4.1,1.8C216.4,133.9,201.5,106.5,186.9,78.8 M503.7,86.3
		c1.5,0.3,2.9,0.5,4.4,0.8c-3.5,12.8-7.4,25.4-10.9,38.2c-1.5-0.3-3.1-0.5-4.6-0.8C496.2,111.7,500.2,99,503.7,86.3 M306.6,88.6
		c1.5-0.3,2.9-0.5,4.4-0.8c3.6,12.8,7.6,25.6,11.2,38.4c-1.5,0.4-3.1,0.6-4.6,0.6C314.1,114.1,310.1,101.4,306.6,88.6 M656.8,208.2
		c28.9-32.7,57.4-65.7,86.3-98.3c1.1,0.9,2.1,1.8,3.2,2.7c-28.7,32.9-57.4,65.9-86.1,98.9C659,210.3,657.9,209.2,656.8,208.2
		 M644.5,197.9c25-28.9,50.4-57.5,75.5-86.3c1.1,0.9,2.2,1.7,3.4,2.6c-25,29-50.3,57.8-75.4,86.7
		C646.8,199.8,645.7,198.8,644.5,197.9 M76,123.5c1.1-0.8,2.2-1.6,3.4-2.4c26.9,30.9,54.1,61.5,80.8,92.5c-1.1,1-2.2,1.9-3.4,2.9
		c-24-27.5-47.9-55-71.9-82.5C82,130.5,78.8,127.2,76,123.5 M239.5,164.3c57.8-30.9,124.1-45.4,189.6-42
		c44.6,2.2,88.9,12.5,129.8,30.8c64.3,28.5,119.7,76.2,158,135.2c1.9,3,4.1,5.9,5.3,9.3c-15.5,0.3-31.1,0.1-46.6,0.1
		c-6.2-8.6-12.8-16.8-19.8-24.8c1.8-3.7,4.8-6.9,5.8-10.8c-22-25.2-48.2-46.6-76.8-64c-1.8,3.6-3.7,7.2-5.7,10.6
		c-8.1-4.6-16.3-9.2-24.6-13.3c2.2-3.5,4.5-7,5.6-11c-37.5-18.5-78.4-30-120.1-33.6c-55.6-4.9-112.4,4.3-163.6,26.7
		c-4.4,1.8-8.6,4-12.9,5.8c1.1,4.1,3.5,7.7,5.5,11.4c-8.5,3.8-16.5,8.5-24.6,13c-2.2-3.5-4-7.1-5.7-10.8c-27,16.1-51.9,36-73.3,59
		c2.2,3.5,4.2,7,6.3,10.6c-9.1,9.9-17.7,20.2-25.5,31.1c-15.8,0.2-31.5,0.1-47.3,0C132.6,241.6,181.8,195.1,239.5,164.3 M99.6,126.3
		c-1.6-1.5,1.6-2.5,2.3-3.6c15.7,17.3,31,35.1,46.4,52.7c7.9,9.2,16,18.1,23.8,27.4c-1.2,1-2.4,1.9-3.5,2.9
		C145.8,179.1,122.5,152.8,99.6,126.3 M620.6,179.8c10.7-17.1,21.7-34.2,32.5-51.3c1.2,0.8,2.4,1.6,3.6,2.5
		c-9.9,15.9-20,31.7-29.9,47.6c-0.8,1.3-1.5,2.7-2.1,4C623.3,181.7,621.9,180.8,620.6,179.8 M158.1,132.6c1.2-0.9,2.3-1.7,3.5-2.6
		c11.3,18.1,22.9,36.1,34.3,54.2c-1.3,0.8-2.5,1.7-3.8,2.6C180.9,168.6,169.4,150.7,158.1,132.6 M678.8,229.4
		c33.5-29.7,66.5-60.1,99.9-89.9c1,1,2,1.9,2.9,2.9c-33.2,30.3-66.5,60.4-99.7,90.7C680.9,231.8,679.9,230.6,678.8,229.4
		 M667.8,218.5c23.1-23.7,46-47.6,69.3-71.2c1.1,0.9,2.1,1.7,3.2,2.6c-22.9,24.1-46.2,47.8-69.2,71.8
		C670,220.7,668.9,219.6,667.8,218.5 M632.2,188.3c11-13,21.8-26.2,32.9-39.1c1.1,0.9,2.3,1.7,3.4,2.6
		c-10.5,13.2-21.8,25.8-32.1,39.1C634.9,190.2,633.5,189.3,632.2,188.3 M785.4,149.9c1,1,2.1,1.9,3.1,2.8
		c-32.8,29.7-65.8,59.2-98.7,88.8c-1-1.2-2-2.3-3-3.5C719.7,208.7,752.5,179.3,785.4,149.9 M40.5,153.3c1.2-0.8,2.3-1.7,3.5-2.5
		c31.1,28.5,62.6,56.7,94,85.1c-1.1,1.1-2.1,2.2-3.2,3.3c-28.7-25.9-57.2-52-85.9-78C46,158.5,43.1,156.1,40.5,153.3 M82,161.3
		c1.1-0.9,2.2-1.9,3.3-2.8c21.2,22.1,43,43.7,63.9,66.1c-1.2,1-2.4,1.9-3.6,2.9C124.7,205.1,103,183.5,82,161.3 M153.8,163.2
		c1.1-0.9,2.1-1.9,3.2-2.8c9.3,10.6,18.2,21.6,27.3,32.4c-1.2,0.9-2.4,1.8-3.6,2.8C171.7,184.8,162.7,174.1,153.8,163.2 M33.9,163.6
		c1.1-0.6,2.2-1.2,3.2-1.8c31.4,27,61.7,55.3,92.9,82.5c-0.9,1.2-1.9,2.5-2.8,3.7c-30.4-27.3-60.9-54.6-91.1-82
		C35.3,165.2,34.6,164.4,33.9,163.6 M299,184.2c60.1-22.2,126.9-25.8,189.1-10.5c67.7,16.4,129.5,55.6,173.6,109.5
		c23.7,28.9,42.4,61.9,54.8,97.1c16.2,45.5,21.9,94.6,16.8,142.6c-7.2,70.1-38.1,137.6-86.8,188.6c-45.7,48.7-106.9,82.7-172.5,95.5
		c-48.9,9.7-100,8-148.2-5.1c-69.9-18.7-132.7-61.9-175.8-120c-45.6-61-68.2-138.6-63-214.5c-0.7,0.3-2,1-2.6,1.3
		c0.4,4.4,0.3,8.8,0.2,13.2c-3.6-1.8-7.1-3.8-10.5-5.9c-0.1,19.4,0.3,38.9,3.7,58.1c2.5,3.5,7.1,4.5,10.6,6.6
		c1.8,11.8,4.5,23.4,7.3,35c-3.6-1.8-7.1-3.6-10.8-5.2c18.8,74.2,64.5,141.1,126.2,186.4c29,21.4,61.5,38.1,95.8,49.2
		c47.5,15.4,98.4,20,147.8,13.4c66.1-8.5,129.3-37.5,179.1-81.8c48.5-43,84.5-100.1,101.5-162.7c0.2-1.2,0.5-2.4,0.6-3.5
		c-3.6,1.7-7.1,3.5-10.6,5.3c3.3-11.6,5.3-23.5,7.9-35.3c3.4-1.7,6.7-3.5,10.1-5.2c3.2-19.3,4.1-38.9,3.7-58.4
		c-3.4,1.5-6.2,4.2-9.9,5.2c-0.7-5.5-0.4-11-0.9-16.5c12.7-0.4,25.4-0.8,38.1-1.3c2.2,42-2.5,84.4-14.5,124.8
		c-17.7,60.2-51.8,115.4-97.2,158.8c-43.5,41.9-97.6,72.7-155.9,88.5c-83.6,22.7-175.3,14.9-253.4-22.7
		c-64.7-30.8-119.6-81.4-156.3-142.9c-37-61.9-54.6-135-50.1-206.9c12,0.4,24,1,36,1.2c1.6,0.1,3-0.8,4.4-1.4
		c4.3-66.2,30.5-130.7,72.7-181.9C196.6,238.5,245,204,299,184.2 M290.1,194.2c-69.4,28.3-128,82.1-162.3,148.8
		c-38.7,74.4-46.2,164.7-19.6,244.3c3.4-4.3,6.8-8.6,9.9-13.2c2.7-3.9,4.5-8.7,8.3-11.7c5.2-4.1,10.4-8.2,15.8-12.1
		c12.5-9.5,26-17.7,37.8-28.1c6.7-5.7,13.4-11.4,21-15.9c5-3,8-8.1,11.6-12.5c4.7-6.3,10.2-11.9,16.6-16.5
		c11.7-4.8,23.9-8.3,36.2-10.9c5.9-1.4,10-6.3,15.4-8.7c10.6-4.3,21.5-8,31.6-13.2c5.5-4,11.2-8.1,14.8-14
		c6.9-11.2,14.7-21.8,22.6-32.4c4.7-5.8,11.4-9.4,17.1-14.1c10-7.2,17.5-17.2,27.3-24.7c6.8-2.1,14-2.8,21-4.5
		c5.4,3.6,10.4,7.8,15.7,11.5c6.6,4.6,13.8,8.2,20.6,12.4c3.3,2,5,5.7,7.4,8.5c4.1,2,8.8,2.6,12.8,5c5.8,4.7,11.4,10.1,14.1,17.2
		c3.3,2.5,7.6,3.7,11.3,5.6c7.1,3.6,15.4,3.8,22.4,7.6c3.8,2.5,6.7,6,10.3,8.7c3.5,2.3,7.8,2.8,11.5,4.5c3.4,4,6.2,8.4,9.4,12.6
		c5.3,7,7.3,16.1,13.4,22.6c7.3,8,15.5,15.2,23.4,22.6c4.4,4.4,11.3,4.9,15.5,9.6c12,12.4,24.5,24.3,37.6,35.5
		c8.6,9.4,14,21.7,24.5,29.4c6.9,4.5,14.2,8.2,21,12.9c7.9,5.9,15.5,12,23.2,18.1c26.8-70.8,26.2-151.2-0.4-222
		c-13.1-35-32.6-67.6-56.9-95.9c-48.4-56.5-117.2-95.2-190.8-106.6C403.7,165.3,343.8,172,290.1,194.2 M395.3,362.3
		c-6.1,4.8-11.2,10.8-17,16.1c-6.3,6.2-13.7,11-20.6,16.4c-2.2,1.7-4.4,3.6-6,5.9c-7.6,10.4-15.4,20.8-22.1,31.9
		c-3.7,6.2-9.9,10.4-15.6,14.6c-10,5.1-20.6,8.7-30.9,12.9c-6.1,2.4-10.6,8.1-17.3,9.3c-11.7,2.4-23.2,6-34.4,10.3
		c-9.1,5.7-15.3,14.6-21.8,23c-3.9,5.3-10.2,7.8-15.3,11.8c-6.9,5.2-13.7,10.8-19.9,16.9c3-0.7,5.9-1.8,8.8-3
		c-0.8,3.3,1.1,6.4,2.1,9.4c3.9-4.2,6.6-9.4,9.5-14.4c2,1.3,3.9,2.7,5.8,4.1c-2.1,7.3-3.4,14.8-5.2,22.1c-2.5,5.7-8.8,9.1-10.3,15.3
		c-0.4,8.6-4.8,16.1-8.1,23.8c2.1,2.6,3.9,5.5,6.6,7.5c4.1,1.8,8.6,2.8,12.8,4.3c1.2,2,2.5,3.9,3.7,5.9c-0.4,1.7-1.5,3.1-2,4.8
		c-2.9,7.3-1.9,15.3-3.2,22.9c-0.7,3.9-0.8,8.3-3.6,11.5c-4.6,5.5-8.5,11.4-12.6,17.3c-1.8,2.6-2.1,5.8-2.8,8.7
		c2.2-0.3,4.4-0.7,6.6-1.1c2.7-4.7,6.6-8.5,11.1-11.5c0.1,2.7,0.4,5.4,0.3,8.1c-1.2,2.3-3.3,4.1-4.8,6.2c-4.8,5.4-3.8,13.2-6.4,19.6
		c-1.2,4.3-4.8,7.7-5.4,12.2c5.5,6.8,12,12.7,18.5,18.5c4.8-5.7,9.1-12.2,10.2-19.6c-0.1-6.8,0.3-13.5,2-20.1c0.1-1,0.6-1.7,1.3-2.3
		c3.2-3,6.8-5.8,9.1-9.5c1.7-6.6,1.8-13.4,2.5-20.1c-0.2-4,3.2-6.7,5.1-9.8c5.3-8,16.5-8.6,21.9-16.5c-1.7-1.2-3.4-2.2-5.2-3.2
		c6.1-7.1,12.7-13.7,19.4-20.3c0.2-2.1,0.4-4.3,0.6-6.4c-2.7,0.7-5.4,1.4-8,2.2c-3.5-4.1-5.4-9.5-5.6-14.9c0.8-2.4,2.1-4.6,3.1-6.9
		c-1.4-3-3.5-5.8-3.8-9.1c0.1-5.6,1-11.2,1.7-16.8c-1.5-2.2-3-4.5-4.4-6.7c3.2-3.8,6.4-7.6,10-11.1c-1.3-1.4-2.6-2.8-4-4.1
		c-5.4,5.2-10.6,10.5-15.9,15.8c-6.6,7.1-9.2,16.7-14.3,24.8c-6,10.7-15.6,18.5-23.5,27.6c-4.4-0.6-8.6-2.8-11.6-6.2
		c2.3-1.5,4.6-3.1,6.7-4.8c0-5.7,0.4-11.7,3.2-16.9c2.7-4.5,7-8.1,8-13.5c0.7-3.6,3.1-6.4,5.3-9.1c3.8-4.5,7.3-9.3,11.2-13.8
		c3.8-4.6,9.6-6.6,14.4-10c-0.9-2.1-1.8-4.2-2.7-6.3c-1.9,0.8-3.8,1.6-5.8,2.4c-1.2-2.6-2.4-5.3-2.6-8.2c0.8-4.4,5.2-7.3,5.3-11.9
		c0.5-4.3,0.8-8.7,1.2-13c2.9-1.2,5.7-3,8.9-3.2c8.9,1.9,18.1,2.1,27.2,2.4c4.8,0.2,9.1-2.3,13.9-2.2c6.8,0.2,13.5,1.3,20.1,2.2
		c5.2-7.3,10.3-14.7,14.4-22.8c1.3-2.8,3.9-4.6,6.4-6.4c4.8,2.8,8.8,6.9,12.2,11.3c2.4,0,4.7,0,7.1-0.1c-1.1,4.8-4.3,8.6-7.4,12.1
		c-7.3,1.3-14.9,2.8-20.8,7.7c3.3,3,6.9,5.9,11.1,7.5c10.4,3.6,21.3,5.5,31.5,9.4c0.8,2.8,1.8,5.5,2.8,8.2c-3.3,5.5-8,10-13,14
		c1.1,0.7,2.3,1.4,3.5,2.2c5.1-0.9,10.5-1.8,14.7-5.1c3.3-3,3.9-7.9,6.4-11.3c4-0.6,8-0.5,12-0.3c5.1,0.3,9.4,3.2,13.7,5.6
		c1.7,0.9,3,2.4,4,4c2.2,3.5,4.8,6.8,7.5,10c2.9-0.1,5.7-0.1,8.6,0c4.3,4.4,7,10.1,9,15.9c2.4,0.8,5.1,2.1,5.7,4.8
		c-2.4,7-8.1,12.2-11.4,18.7c-1.5,6.9-1.5,14.1-1.8,21.2c3.1,2.2,6.5,4.1,8.7,7.2c0.9,4.2,0.9,9.2,4.7,12c1.4-4.2,2.7-8.3,3.9-12.5
		c-2.8-3.6-7-6.7-7.3-11.6c-1.2-5.9,1.3-11.5,3.2-16.9c1.9-0.4,3.8-0.7,5.7-1.1c2.6-2.8,5.5-5.4,8-8.3c1-4.5,1-9.5-1-13.8
		c-1.5-3.1-1.9-6.7-1-10c3.2-0.6,6.6-0.7,9.7-1.6c3.4-4.2,6.3-8.7,8.9-13.4c-0.6-4.5-2.7-8.6-3.4-13.1c0.2-2.8,1.2-5.3,2-8
		c5,0.4,8.1,4.7,11.6,7.6c1.7-5.2,3.3-10.4,4.5-15.8c-3-1.5-6.1-2.9-9.1-4.4c-7.2,3-14.8,5.6-22.7,5.7c0.5-2.6,0.3-5.6,2.3-7.6
		c3.5-4.2,6.7-8.6,9.5-13.3c-2.7-4.8-4.9-9.8-6.8-14.9c-0.9-2.5-3.1-4.2-4.9-5.9c-3.9-3.5-7.6-7.1-11.5-10.5c-0.7,5,2.2,9.2,5,13
		c0.2,3.7,0,7.5,0,11.2c-3.9,4.3-5.2,10.4-4.9,16.1c0.7,4,2.5,7.8,2.9,11.9c-2.3,7.3-9.4,11.3-13.8,17.2c-3,3.4-3.6,7.9-5,12.1
		c-1.4,0.1-2.8,0.3-4.3,0.4c-0.4-2.6-1.1-5.2-1.3-7.8c1.1-5.5,5.5-9.6,10.1-12.6c-1.1-3.3-1.9-7.1-4.9-9.2c-2-1.9-5.2-3.1-5.6-6.2
		c-0.3-3.3-0.5-6.6,0.1-9.9c1.4-4.3,5.2-7.3,7.4-11.2c2.4-6.6,3.4-14,0.5-20.6c1.6-2.3,3.7-4.4,4.7-7.1c-2.1-7.7-4.6-15.5-9.1-22.1
		c-2.9-4.1-2.6-9.4-3.1-14.1c-0.6-3.7,0.4-7.3,1.2-10.9c0.9-4,0.5-8.1,1.1-12.1c0.5-3,2-5.8,1.4-8.9c-0.6-3.9-1.9-7.6-2.1-11.6
		C406.7,359.9,400.8,360.2,395.3,362.3 M532.1,485.2c-1.2,4.9-1.8,10-1.5,15c2.8,4,5.8,7.8,8.1,12.1c3,5.6,8.1,9.8,10.5,15.6
		c2.3,5.5,0.3,11.7,2.5,17.2c2.5,6.4,6.3,12.2,10.1,17.9c1.2,2.3,4,2.5,6.2,3.3c1.6-1.5,3.3-3.1,5-4.6c-0.3-9.7-0.5-19.5,2.5-28.9
		c-1.9-6.4-4.5-13.1-3.4-20c-4-2.2-8.5-3.7-11.3-7.5C553.2,496.1,542.4,490.6,532.1,485.2 M134.8,559.8c-4,3.3-8.7,6.1-11.1,11
		c-4,7.5-9.8,13.7-14.6,20.7c5.3,14.8,11.3,29.3,18.5,43.2c1.5-5.1,2.6-10.2,4-15.3c2.1-7.5,7-13.8,9.6-21
		c2.4-9.9,1.4-20.1,1.2-30.2c2.5-2.4,5.2-4.7,7.5-7.3c2.9-3.3,4.2-7.6,5.7-11.6c-1.2-0.8-2.5-1.5-3.7-2.2
		C146.1,551.1,140.4,555.4,134.8,559.8 M622,589c-2.7,2-6,2.5-9.1,3.3c-7.8,2.1-16.2-0.8-23.9,2c-5.2,1.7-10.3,3.4-15.5,5
		c-1.2,0.4-2.7,0.7-3.2,2c-4.2,7-9,13.5-14.2,19.8c-1,1.2-2,2.4-2.3,4c-1.5,5.5-2.5,11.2-3.1,16.9c0.6,10.3,7.4,18.4,12.1,27.1
		c2.6,11.1,3.6,22.5,3.7,33.9c-0.5,5.5-3.1,10.5-5.1,15.5c-3.8,2.9-7.8,5.6-11.6,8.4c-6.1,4.4-14.3,4.2-20.5,8.4
		c-4.6,3.1-9,6.4-13.5,9.5c-5.1,3.3-7.5,9.2-10.5,14.2c-0.2,3.3,0,6.7-0.1,10c-3.7,0.9-7.4,1.8-11.1,2.5c-7.7,1.1-15.5,0.1-23.1,2
		c-12.5,3.1-25.1,6-37.9,8c-6.9,0.9-11.9,6.3-17.6,9.7c-1.3,5.3-2.8,10.6-4,16c18.6,0.2,37.2-1.7,55.6-4.9c5.1-0.7,8-6,13.2-6.6
		c9.3-1.9,18.6-3.8,27.7-6.9c1.6-0.6,2.8-1.8,4.1-3c5.8-5.5,11.7-11,17.6-16.5c3.1-3,4.9-7,7.4-10.4c4.6-5.7,10.9-9.8,15.4-15.6
		c2.8-6,3.9-12.8,7.8-18.3c3.4-6.3,9-11,14.5-15.5c6.8-5.4,15.1-8.5,22-13.8c3.8-3.6,7.1-7.8,10.6-11.7c1.8-2.2,4-4.2,4.9-7
		c2.7-8.1,3.7-16.8,7.2-24.7c3.4-7.9,6-16.2,10.4-23.6c4.2-7,7.2-14.7,9.5-22.5c2-11.3,4.1-22.8,3.8-34.4
		C635.7,577.1,629,583.3,622,589 M665.8,603.8c1.5,2.3,2.2,5.3,4.2,7.2c5.9,1.8,12,3.2,17.9,5c1.6,6,2.5,12.5,6.1,17.8
		c2.9-4.4,5-9.2,7.2-14c-2.3-3.9-4.7-8-8.8-10.2c-7.4-4.7-15.7-7.5-23.9-10.4C667.4,600.7,666.6,602.2,665.8,603.8 M327.2,637.3
		c-8.6,5.7-17.3,11.2-25.5,17.4c-5.8,4.2-13.2,3.9-19.7,6.5c1.9,1.5,3.8,3,5.7,4.4c4.9-1.7,9.9-3.2,14.8-4.8c-0.3,2.3-0.5,4.7-0.7,7
		c-1.5,0.7-3,1.4-4.5,2.1c1.3,1.5,2.6,3,4,4.4c2.5-1.2,5.1-2.4,7.6-3.6c0.7,6.4,0.5,12.9-1.1,19.1c-6.8,6.3-13.5,12.9-21.8,17.2
		c0.5,2.1,0.6,4.4,1.5,6.4c1.3,0.2,2.7,0.4,4,0.6c-2.2,9.6-1.2,20.7-8,28.6c-6.4,4.9-12.5,10.7-20.4,13.3c-2.8,3.5-4.7,7.5-6.8,11.4
		c6.5,3.7,13.3,6.9,19.9,10.3c2.9-4.9,4.4-10.7,8.6-14.8c6.4-6.4,12.8-13,16.6-21.2c2.3-4-0.9-8.5,0.8-12.6c1.5-4,2.7-8.1,4.8-11.8
		c2-1.8,5-2.2,7.4-3.4c-0.6,5.1-0.6,10.3-1,15.5c3.2-1.7,6.5-3.5,9.9-4.8c4.3-1.1,4.5-6.3,6.6-9.5c4.1-6.2-0.2-14.1,3.5-20.5
		c2.7-5.2,4.9-11.2,3.9-17.2c-2.7-5.8-6.1-11.4-8-17.6c1.5-3.3,2.3-7,4.3-10.1c3.4-3.5,9.4-3.5,11.8-8.2c4-4.2-0.6-9.4-2.7-13.3
		c4.2-3.2,8.3-6.4,12.4-9.7c-3-1.5-6.2-2.5-9.4-3.7C340.2,622.7,334.8,631,327.2,637.3 M707.4,262.8c37.5-26.4,74.8-53,112.4-79.2
		c0.8,1.1,1.7,2.1,2.5,3.2c-37.3,26.6-74.7,53.1-112.1,79.7C709.3,265.2,708.3,264,707.4,262.8 M698.3,251.3
		c26.9-21.1,53.9-42.3,80.8-63.4c1,1,2.1,2,3.1,3.1c-27,21.3-54,42.6-81,64C700.2,253.7,699.2,252.5,698.3,251.3 M0.9,198.9
		c0.1-1.5,0.2-3.1,1.2-4.4c36,25,71.7,50.6,107.6,75.8c-0.9,1.1-1.8,2.2-2.7,3.4C74,251,41.6,227.5,8.9,204.4
		C6.3,202.5,3.7,200.5,0.9,198.9 M40.2,202.1c0.9-1,1.7-2,2.7-2.9c1.5,0.6,2.7,1.9,4,2.9c23.9,18.7,47.5,37.5,71.5,56
		c-0.8,1.3-1.6,2.6-2.3,3.9C90.6,242.2,65.4,222.2,40.2,202.1 M716.9,275.4c33.5-23.3,66.7-47.1,100.1-70.6c0.9,1.1,1.8,2.1,2.7,3.2
		c-33.5,23.8-66.9,47.7-100.5,71.4C718.4,278.1,717.6,276.7,716.9,275.4 M400,211.3c2.4-0.1,4.9-0.2,7.3-0.4c0.5,15,0.8,30,0.8,45
		c0.1,4-3.4,7-7.1,7.5c-3.4,0.4-7.2,0.8-10.2-1.2c-2.4-1.5-3.3-4.4-3.5-7.1c-1.5-14.2-3.1-28.4-4.5-42.6c2.4-0.3,4.8-0.6,7.2-0.7
		c1.4,14.5,2.3,29.1,3.7,43.6c0.1,4.8,8.6,4.3,8.3-0.5C401.4,240.5,400.8,225.9,400,211.3 M433,211.8c2.6,0.1,5.2,0.1,7.8,0.6
		c1.2,1.5,1,3.7,1.5,5.5c2.1,10.7,3.3,21.5,5.2,32.3c1.5-12.1,3.5-24.2,5-36.2c2.3,0,4.5,0.3,6.7,0.8c-2.9,17-5.6,34-8.5,51
		c-2-0.3-4.1-0.6-6.1-1c-1.7-12.8-3.8-25.6-7.1-38c-0.9,12.3-2.1,24.6-3.3,36.9c-1.6-0.1-3.2-0.2-4.7-0.3
		C430.4,246.2,431.6,229,433,211.8 M2.5,219.3c0.9-1.1,1.7-2.2,2.6-3.2c31.9,22.3,63.5,45,95.5,67.3c-0.9,1.3-1.8,2.5-2.7,3.8
		C66.2,264.5,34.3,241.9,2.5,219.3 M344.6,218.7c3.7-1,7.9-1.9,11.6-0.1c2.5,1.1,3.7,3.8,4.1,6.3c2.2,11.1,4.3,22.1,6.5,33.2
		c0.6,3,0.5,6.6-2,8.7c-3.3,2.7-7.8,3.7-11.9,3.2c-3.2-0.5-5.6-3.3-6.4-6.3c-3.3-11.6-6.8-23.2-10-34.8
		C335.2,223.6,340.1,219.8,344.6,218.7 M347,223.1c-2.1,0.4-4.2,2.4-3.3,4.8c3.1,11.6,5.9,23.4,9.2,35c1.6,4.4,9.7,1.5,7.8-3
		c-2.5-11.3-5-22.6-7.6-33.8C353,223,349.5,222.1,347,223.1 M483.5,220c5.1,1.1,10.1,2.5,15,4.3c4.1,1.6,7.9,6.1,6.1,10.7
		c-3.8,11-7.8,22-11.7,33c-1.2,3.7-5,6.2-8.8,5.6c-4.5-0.7-8.9-2.4-13.3-3.5C474.8,253.3,479.4,236.7,483.5,220 M489.3,226.6
		c-3.6,13.5-7.7,26.8-11.4,40.2c2,0.6,4,1.5,6.2,1.5c2-0.1,2.8-2.2,3.3-3.9c3.3-10.1,6.6-20.2,9.9-30.3c0.3-1.2,1-2.5,0.2-3.7
		C495.8,227.6,492.1,227.5,489.3,226.6 M303.1,233.2c3.7-1,8.6-0.5,10.4,3.4c1.9,4.2,3.6,8.6,5,12.9c0.8,2.8-0.6,5.6-2.5,7.6
		c5.1,6.6,9.9,13.5,14.2,20.6c-2,0.8-4.1,1.6-6.1,2.4c-4.3-6.7-8.6-13.4-13.6-19.7c-1.5,0.7-3,1.3-4.5,2c3.2,7.1,6.5,14.2,9.9,21.2
		c-1.8,1-3.7,1.9-5.6,2.7c-7.6-15.5-15.5-30.9-23-46.5C292.5,237.5,297.6,234.7,303.1,233.2 M296.1,241.3c2.7,5.7,5.3,11.5,8,17.2
		c2.7-1.3,5.9-2.1,7.8-4.7c0.5-3.2-1.7-6-2.7-8.9c-1.2-2.3-1.6-5.6-4.3-6.5C301.8,238.2,298.9,240.1,296.1,241.3 M531.2,236.8
		c2.2,1,4.4,2,6.6,3c-7.3,15.7-15.2,31.1-22.9,46.6c-1.9-0.8-3.7-1.8-5.5-2.8C516.9,268,524,252.4,531.2,236.8 M725.3,287.9
		c19.9-13.2,39.6-26.7,59.5-40c0.7,1.3,1.5,2.5,2.2,3.8c-20,13.3-39.7,27.2-59.8,40.3C726.6,290.7,725.9,289.3,725.3,287.9
		 M561,252.6c2.4,1.4,4.8,3,7.1,4.5c-3.5,12.4-7.7,24.7-12.1,36.8c7.2-10.1,14.4-20.2,21.8-30.2c1.8,1.3,3.7,2.7,5.4,4.1
		c-10.5,13.7-20.8,27.6-31.3,41.3c-1.6-1.2-3.3-2.4-5-3.6c4.3-12.4,7.9-25,11.6-37.6c-7.1,10.2-13.5,21-20.5,31.4
		c-1.4-0.9-2.8-1.7-4.3-2.6C542.8,282,551.9,267.3,561,252.6 M258,257.1c3.6-1.8,8.7-2,11.2,1.7c2.4,3.6,4.7,7.3,6.8,11.1
		c1.6,2.8,0.5,6-1,8.5c6.4,5.3,12.2,11.4,17.8,17.5c-1.9,1.2-3.8,2.4-5.7,3.6c-5.4-5.9-10.9-11.7-17.1-16.8c-1.3,1-2.7,1.9-4,2.9
		c4.6,6.3,8.9,12.8,13.6,19c-1.6,1.3-3.3,2.6-4.9,3.9c-10.6-13.7-20.9-27.7-31.2-41.5C248.2,263.5,252.8,259.7,258,257.1
		 M252.6,266.4c3.5,5.3,7.4,10.3,10.9,15.6c2.6-2,6.4-3.4,7.1-7c-1.8-4.4-4.8-8.2-7.5-12.1C259.4,260,255.7,264.7,252.6,266.4
		 M35.2,262.6c0.8-1.2,1.5-2.3,2.3-3.5C55.8,271.5,74,283.8,92.3,296c-0.6,1.3-1.3,2.7-1.9,4c-0.8-0.4-1.6-0.8-2.3-1.2
		c-15.7-10.7-31.4-21.4-47.2-32C39,265.5,37,264.2,35.2,262.6 M217.7,289c1.9-1.8,3.8-3.7,5.9-5.3c9.6,10.9,19.6,21.6,29.3,32.5
		c2.5,2.5,3,6.7,1.1,9.8c-1.9,3.3-4.9,6.2-8.4,7.8c-2.9,1.1-6.3,0.5-8.5-1.8c-10.8-9.7-21.4-19.7-32.2-29.3c1.7-2.1,3.5-4.2,5.6-5.9
		c9.6,9.7,19.7,19,29.4,28.6c1.5,1.3,2.9,3.4,5.2,2.7c2.5-1.1,5.4-4.5,3.1-7C238.1,310.2,227.8,299.7,217.7,289 M596.7,291.7
		c1.8-2.1,4.4-4.1,7.4-3.7c4.4,0.6,8,3.9,10.7,7.2c2.3,2.8,3.9,7,1.6,10.4c-2.4,3.3-5.8,5.6-8.7,8.4c-1.4-1.5-2.8-3-4.1-4.5
		c2.5-2.5,5.3-4.8,7.5-7.6c1.4-4-4.9-9.8-8.2-5.8c-8.1,8.5-16.4,16.9-24.5,25.5c-3.2,3.4,2.7,9.3,6.1,6.2c3-2.6,5.7-5.4,8.5-8.2
		c-1.2-1.2-2.3-2.3-3.4-3.5c1-1.1,2-2.1,2.9-3.2c3.1,2.7,5.7,5.8,8.6,8.7c-4.7,4.9-10,9.1-14.9,13.8c-1.2,1-2.3,2.5-4.1,2.7
		c0.2-1.4,0.3-2.9,0.6-4.3c-7.3-0.2-14.9-9.7-9.6-16.3C581,308.8,589,300.3,596.7,291.7 M46.6,311.6c29.8,0.3,59.7-0.2,89.5,0.2
		c-3,4.8-5.5,10-9.1,14.4c-4.2,0.5-8.5,0.3-12.8,0.3c-6.8,12.8-12.9,26.1-18.2,39.7c-0.2,1.1-1.2,2.2-0.8,3.3c2.9,2.2,6,4.3,8.9,6.4
		c-3.7,10.1-6.8,20.4-9.6,30.7c-13.2,0.5-26.5,0.6-39.8,1.4c5.8-28.2,15.6-55.5,28.1-81.5c-12.1-0.1-24.2-0.1-36.3,0
		C46.7,321.5,46.6,316.5,46.6,311.6 M685.3,311.6c29.5,0.2,59.1-0.5,88.6,0.3c-0.1,4.8,0,9.7-0.1,14.6c-11.8,0-23.5-0.1-35.3,0.2
		c12.5,25.7,21.9,52.9,28,80.8c-13.3-0.5-26.5-0.9-39.8-1.4c-2.7-9.8-5.7-19.4-9-29c3.1-2.1,6.1-4.4,9.2-6.5
		c-5.5-15.2-12.3-29.8-19.7-44.1c-4.4-0.1-8.7-0.3-13.1-0.3C691.2,321.4,688.2,316.5,685.3,311.6 M182.2,330.2
		c2.3-2.7,6.2-5.4,9.9-3.6c3.5,1.9,6.5,4.6,9.6,7c-1.5,2-2.9,4-4.4,6c-3.1-2-5.8-4.7-9.3-6.1c-2.8,0.1-4.3,2.8-5.6,5
		c-0.9,1.6-1,4.1,0.9,5c2.9,1.8,5.6,4.1,8.8,5.3c6.5-1.5,12.2-5.7,18.8-6.7c4.8,0.6,8.1,4.7,11.9,7.2c3.6,2.3,4.1,7.3,2.2,10.9
		c-1.9,3.8-4.4,7.8-8.4,9.5c-2.4,1.1-5,0.3-7.1-1c-3.2-1.9-6.4-3.8-9.4-6c1.2-1.8,2.4-3.6,3.6-5.4c3.1,1.9,6.1,4.1,9.3,5.9
		c3.9,2.2,8-3.4,6.8-7c-3.4-2.7-6.8-5.9-10.9-7.1c-6.3,1.4-11.7,5.4-18,6.8c-3.1,0.1-5.6-2.2-8.2-3.6c-3.2-1.9-7.3-3.9-7.4-8.2
		C175.7,338.7,178.9,334.2,182.2,330.2 M627.5,330.6c3-2.2,6.1-5.6,10.3-4.5c4.9,1.8,7.9,6.5,10.3,10.9c1.8,3.3,2.9,8.1-0.2,11
		c-3,2.5-6.6,4.2-9.9,6.3c-1.3-2.1-2.6-4.2-3.9-6.2c2.9-2.1,6.2-3.7,8.8-6.1c1.6-3.1-1.1-6.4-3.4-8.3c-2.2-1.8-4.3,0.7-6.1,1.8
		c-1.9,1.7-4.8,2.7-5.8,5.1c-1.1,6.6,1.1,13.5-1.1,20c-1.9,3.1-5.6,4.4-8.4,6.5c-2.8,2-6.6,3.8-10,2c-3.6-2-6.1-5.7-7.8-9.4
		c-1.4-2.9-1.2-6.7,1.2-9c3.2-3,6.9-5.4,10.3-8c1.3,1.7,2.5,3.4,3.7,5.2c-3.1,2.2-6.2,4.2-9.1,6.7c-2.9,2.4-0.3,6.4,2.2,8.1
		c1.7,1.3,3.5-0.4,4.9-1.2c2.5-1.8,5.4-3.1,7.4-5.5c1.5-6.3-0.3-12.9,0.8-19.3C622.6,333.7,625.4,332.3,627.5,330.6 M641.1,365.2
		c2.9-1,6.4,1.7,5.6,4.8c-0.4,2.9-4.2,4.7-6.6,2.9C637.2,371.2,637.8,366,641.1,365.2 M180.2,366c2.9-1.5,6.9,0.6,6.7,4
		c-0.2,3-3.9,5.2-6.5,3.5C177.6,372.1,177.6,367.7,180.2,366 M366.5,394.5c5.5-4.3,10-10.3,17.1-11.9c-1.3,3.8-3.5,7.1-5.8,10.3
		c2.6,0.9,5.2,1.9,7.9,2.7c1.5-1.4,3.4-2,5.4-1.4c-2.7,3.8-7.3,5.8-10,9.7c0.1,0.7,0.2,2.2,0.3,2.9c4.4-0.1,8.8-0.6,13.2-0.4
		c-2,5-7.1,8.2-8.3,13.5c-0.7,2.4-0.7,4.9-0.7,7.3c1.4,0,2.9,0.1,4.3,0.1c-1.5,4.6-5.7,7.3-8.4,11.1c-4,5.5-7.3,11.6-10.5,17.6
		c-2,4-1,8.7,0.6,12.7c-2.4,5.5-7.1,9.4-11.1,13.7c-2.6,2.8-4.8,6-8,8.1c-1.3,1.4-2.5-0.5-3.4-1.3c4.4-5.6,10.1-10.4,13.1-16.9
		c3.8-11-0.8-22.9,3-33.9c1.9-5.7,2.5-11.9,1.1-17.8c-5.1,4.9-7.7,12-13.3,16.5c-2.6,2.7-6.6,2.4-9.6,4.4c-5.3,3.4-10.6,7-14.7,11.9
		c-2.2-1.2-4.4-2.4-6.5-3.6c2.8-4.8,7-8.6,10.9-12.6c5.4-6.2,12.8-10.2,18.5-16.1c-1.7-1.4-3.3-2.9-5-4.3
		C351.9,408.2,358.6,400.6,366.5,394.5 M78.6,675.4c2.8-2,6.5-1.2,9.7-1.1c-16.8,11.6-33.9,22.7-50.6,34.3c-0.8-1.2-1.7-2.4-2.5-3.6
		C49.6,695,64.1,685.3,78.6,675.4 M726.8,680.6c0.9-1.1,1.8-2.2,2.8-3.3c19.2,12.6,38.1,25.8,57.1,38.6c-0.6,1.3-1.1,2.6-1.6,3.9
		C765.5,707,746.2,693.8,726.8,680.6 M2.6,748.4c31.2-22.2,62.4-44.3,93.6-66.6c0.9,1.3,1.7,2.6,2.6,3.8
		c-31.3,21.9-62.2,44.3-93.7,65.9C4.2,750.5,3.4,749.5,2.6,748.4 M721.2,689.7c32.8,23.4,65.8,46.4,98.3,70.1
		c-0.8,1.1-1.6,2.2-2.4,3.3c-32.8-23.2-65.5-46.4-98.4-69.5C719.5,692.2,720.3,691,721.2,689.7 M8.6,763.6
		c32.1-22.8,64.3-45.6,96.3-68.5c0.9,1.2,1.9,2.3,2.8,3.5c-34.9,24.9-70,49.7-105.1,74.4c-0.9-1.1-1.7-2.3-2.5-3.4l0,0
		C2.9,767.7,5.8,765.6,8.6,763.6 M709.4,706.3c0.8-1.2,1.7-2.3,2.6-3.5c37,25.7,73.4,52.2,110.2,78.1c-0.8,1.1-1.7,2.2-2.5,3.3
		C782.9,758.3,746.2,732.3,709.4,706.3 M40.1,765.6c24.5-19.5,49.2-38.9,73.8-58.3c0.9,1.2,1.8,2.4,2.8,3.7
		c-24.5,19.2-48.9,38.5-73.5,57.6C42.1,767.6,41.1,766.6,40.1,765.6 M700.2,718c0.9-1.1,1.9-2.1,2.8-3.2c5.6,3.4,10.4,7.7,15.5,11.7
		c21.3,16.8,42.6,33.5,63.8,50.4c-1.1,0.9-2.3,1.9-3.4,2.9C752.7,759,726.4,738.5,700.2,718 M33.8,803.6
		c30.5-27.3,60.9-54.7,91.2-82.1c1,1.2,2,2.4,3,3.6c-30.5,27.1-60.8,54.3-91.2,81.5C35.8,805.6,34.8,804.7,33.8,803.6 M688.8,731.6
		c1-1.2,2-2.4,3.1-3.5c32.2,29,64.6,57.8,96.6,87c-1.1,0.9-2.1,1.8-3.1,2.7C753.2,789.1,721.2,760.2,688.8,731.6 M40.5,814.5
		c30.3-28.4,61.6-55.8,92-84.1c1.2,1,2.3,2.1,3.4,3.3c-30.8,27.7-61.2,55.7-92.2,83.2C42.5,816.1,41.5,815.2,40.5,814.5
		 M681.2,740.1c0.5-1.4,1.9-2.3,2.9-3.4c32.6,29.5,65,59.2,97.6,88.7c-1,1-2.1,2.1-3.2,3C746.2,798.8,713.5,769.6,681.2,740.1
		 M82.1,806.3c20.5-21.4,41.3-42.6,61.8-64.1c0.9,1.2,2.6,2.1,3,3.5c-20.6,21.1-41.1,42.5-61.8,63.5
		C84.1,808.3,83.1,807.3,82.1,806.3 M670.2,751.6c0.1-1.5,1.9-2.5,2.8-3.6c22.5,23.1,44.8,46.4,67.2,69.5c-1.1,1-2.1,2.1-3.2,3.1
		C714.8,797.5,692.3,774.7,670.2,751.6 M76,843.7c26.6-29.9,52.6-60.3,79-90.4c1.1,1.1,2.2,2.1,3.2,3.2
		c-26.3,30.1-52.6,60.1-78.9,90.1C78.1,845.7,77,844.7,76,843.7 M659.5,762.7c-1.5-1.7,1.6-2.9,2.4-4.1
		c28.2,32.1,56.1,64.4,84.2,96.5c-1.1,1-2.1,1.9-3.1,2.9C715.2,826.2,687.4,794.4,659.5,762.7 M120.8,817
		c15.3-17.6,30.6-35.2,46-52.7c1.1,1,2.2,2.1,3.2,3.1c-22.5,25.9-45.3,51.7-67.8,77.5c-1.1-0.8-2.2-1.6-3.4-2.4
		C105.8,833.7,113.6,825.5,120.8,817 M646.6,772.5c1.1-1.1,2.3-2.2,3.5-3.2c24.4,28.2,49.1,56.2,73.4,84.4c-1.2,0.8-2.4,1.7-3.6,2.5
		C695.6,828.2,671.1,800.2,646.6,772.5 M178.4,774.5c1.3,0.9,2.5,1.8,3.8,2.7c-8.1,10.2-16.7,20-25,30c-1.1-0.9-2.2-1.8-3.4-2.7
		C161.8,794.3,170.6,784.8,178.4,774.5 M634.4,781.9c1.2-0.9,2.5-1.8,3.7-2.8c10.1,12.3,20.4,24.3,30.4,36.7
		c-1.2,0.9-2.3,1.7-3.5,2.6C654.8,806.3,644.5,794.2,634.4,781.9 M190.4,783.8c1.3,0.8,2.5,1.6,3.8,2.5
		c-10.8,17.2-21.6,34.4-32.6,51.4c-1.1-0.9-2.2-1.8-3.4-2.6C168.9,818,179.7,800.9,190.4,783.8 M622.4,790.9
		c1.2-0.9,2.4-1.9,3.7-2.8c10.3,16.1,20.3,32.5,30.7,48.5c-1.2,0.8-2.4,1.6-3.6,2.4C642.7,823.1,632.8,806.8,622.4,790.9
		 M145.6,888.2c19.1-31.8,38.2-63.7,57.3-95.5c1.3,0.8,2.6,1.7,3.7,2.8c-19.3,31.4-38.2,63-57.2,94.5
		C148.2,889.4,146.9,888.8,145.6,888.2 M609.6,799.3c1.3-0.9,2.6-1.7,4-2.3c18.5,31,37.2,61.8,55.6,92.8c-1.3,0.6-2.6,1.2-3.9,1.7
		C646.8,860.7,628.2,830,609.6,799.3 M154.6,903.9c20.7-34.1,41-68.5,61.8-102.5c1.2,0.9,2.5,1.7,3.7,2.6
		c-21.8,35.5-43,71.2-64.7,106.7c-0.8-0.4-2.4-1.2-3.2-1.7C152.5,907.1,153.7,905.5,154.6,903.9 M596,807.4c1.2-0.7,2.3-1.4,3.5-2
		c7,9.6,12.3,20.3,18.7,30.2c14.9,24.9,30,49.7,44.7,74.7c-1.2,0.6-2.3,1.2-3.5,1.8C638.1,877.4,617.1,842.4,596,807.4 M186.8,889.2
		c14-26.8,28.3-53.4,42.6-80c1.3,0.7,2.6,1.4,3.9,2.1c-14.1,26.3-28.1,52.6-42.4,78.8C189.5,889.8,188.2,889.5,186.8,889.2
		 M582.5,814.9c1.3-0.7,2.7-1.4,4.1-2c13.8,25.9,27.7,51.8,41.5,77.8c-1.4,0.3-2.7,0.6-4.1,1C609.8,866.2,596.3,840.5,582.5,814.9
		 M243.9,816.8c1.2,0.7,2.5,1.4,3.7,2.2c-16.4,37.1-33.6,73.8-50.4,110.7c-1.3-0.5-2.6-1-3.9-1.5C210.2,891,226.9,853.8,243.9,816.8
		 M565.8,823.1c1.4-0.6,2.8-1.2,4.2-1.8c16.1,35.6,32.2,71.1,48.4,106.6c-1.4,0.4-2.7,0.8-4.1,1.3
		C598.3,893.7,582,858.4,565.8,823.1 M256.2,823.1c1.4,0.4,2.7,0.8,4.1,1.3c-16.3,36.9-33,73.7-49.8,110.4c-1.2-0.6-2.4-1.1-3.7-1.7
		C223.2,896.4,239.5,859.6,256.2,823.1 M555.2,827.8c1.4-0.6,2.7-1.2,4.1-1.8c16.2,36.3,32.5,72.5,48.7,108.8
		c-1.3,0.4-2.6,0.9-3.9,1.4C587.8,900.1,571.5,863.9,555.2,827.8 M241.7,909.3c9.8-26.7,19.8-53.4,29.8-80c1.4,0.7,2.7,1.5,4.1,2.3
		c-10.3,26.3-19.8,53-30,79.3C244.3,910.3,243,909.8,241.7,909.3 M539.6,833.9c1.3-0.6,2.7-1.1,4-1.6c10.2,26.1,19.7,52.5,29.5,78.8
		c-1.3,0.3-2.6,0.7-3.9,1.1C559,886.2,549.5,859.9,539.6,833.9 M285.1,837.9c0.3-1,0.7-2,1.2-2.9c1,0.3,3,1,4,1.3
		c-11.4,37.1-23.4,74-35.1,111c-1.4-0.3-2.7-0.7-4.1-1C262.4,910.2,273.9,874.1,285.1,837.9 M524.6,839c1.4-0.5,2.9-0.9,4.3-1.3
		c11.5,36.8,23.4,73.6,34.6,110.5c-1.4,0.1-2.9,0.3-4.3,0.4C548,911.9,536.1,875.5,524.6,839 M301.4,840c1.5,0.4,3,0.9,4.4,1.4
		c-8.8,27.2-17.3,54.5-26,81.6c-1.3,4.5-2.6,9.1-4.6,13.3c-1-0.1-2.8-0.4-3.8-0.5C281.1,903.9,291.5,872,301.4,840 M509.3,843.1
		c1.5-0.2,3-0.4,4.5-0.6c9.5,31.7,19.9,63,29.5,94.6c-1.4,0.4-2.7,0.7-4.1,1C529.3,906.5,518.8,874.9,509.3,843.1 M316.7,844.3
		c1.4,0.4,2.9,0.8,4.3,1.2c-3.4,11.5-6.3,23.1-10.3,34.5c-1.4-0.2-2.7-0.5-4-0.7C309.8,867.5,313.3,855.9,316.7,844.3 M493.8,847.3
		c1.5-0.4,3-0.7,4.5-1c3.2,11.5,6.8,22.8,9.8,34.4c-1.4,0.3-2.8,0.6-4.2,1C500.5,870.1,497.1,858.7,493.8,847.3 M331.2,847.7
		c1.5,0.4,3,0.7,4.5,1.1c-2.3,15.3-4.5,30.6-6.8,45.9c-1.4-0.3-2.9-0.6-4.3-0.9C326.8,878.5,329.1,863.1,331.2,847.7 M475.5,850.7
		c1.5-0.2,3-0.4,4.6-0.6c2.1,14.6,4.3,29.1,6.3,43.7c-1.5,0.3-2.9,0.6-4.3,0.9C479.9,880,477.8,865.3,475.5,850.7 M346.9,850.9
		c1.5,0.1,3,0.3,4.5,0.4c-3.9,32.1-7.9,64.2-11.9,96.2c-1-0.1-3.1-0.2-4.1-0.3C339,915.1,343,883,346.9,850.9 M363.1,853
		c1.4,0.2,2.9,0.4,4.4,0.6c-4.6,36.9-9.1,73.9-13.8,110.8c-1.4-0.1-2.8-0.2-4.1-0.4C354.1,927.1,358.3,890,363.1,853 M459.9,852.9
		c1.5-0.2,2.9-0.3,4.4-0.4c3.7,31.6,7.9,63.1,11.3,94.7c-1,0.1-3.1,0.2-4.1,0.3C467.6,916,463.5,884.5,459.9,852.9 M379,854.8
		c1.5,0,3.1,0,4.7,0.1c-1.9,26.1-3.8,52.2-5.5,78.4c-1.5,0-3,0.1-4.4,0.1C375.4,907.2,377.3,881,379,854.8 M443.6,854.5
		c1.6,0,3.1,0,4.6-0.1c4.2,36.6,8.9,73.1,13.1,109.7c-1.4,0-2.8,0.1-4.2,0.2C452.6,927.8,448.1,891.2,443.6,854.5 M396.2,855.7
		c1.5,0,3.1,0.1,4.6,0.2c0.1,37.1-0.4,74.1-0.4,111.1c-1.4,0-2.8,0-4.2,0C396.2,929.9,396,892.8,396.2,855.7 M410.2,855.9
		c1.5,0,3.1-0.1,4.6,0c0.1,37.1,0,74.1,0,111.2c-1.4,0-2.8,0-4.2,0C410.7,930,410.2,892.9,410.2,855.9 M427.5,855.5c1.5,0,3,0,4.6,0
		c1.7,26,3.6,51.9,5.2,77.8c-1,0.1-3.1,0.2-4.1,0.3C430.8,907.6,429.4,881.5,427.5,855.5L427.5,855.5z"/>
</g>
</svg>
