<svg xmlns="http://www.w3.org/2000/svg" width="32" height="32" viewBox="0 0 32 32"><path d="M24.32 16a8.32 8.32 0 0 1-16.64 0c0-.547.054-1.082.157-1.6H2.24v11.06a4.3 4.3 0 0 0 4.3 4.3h18.92a4.3 4.3 0 0 0 4.3-4.3V14.4h-5.595c.1.518.155 1.053.155 1.6zm1.14-13.76H6.54a4.3 4.3 0 0 0-4.3 4.3v4.66h6.966C10.712 9.072 13.193 7.68 16 7.68s5.288 1.392 6.794 3.52h6.966V6.54c0-2.373-1.926-4.3-4.3-4.3zm2.103 5.312a.77.77 0 0 1-.768.768h-2.302a.77.77 0 0 1-.768-.768V5.248a.77.77 0 0 1 .768-.768h2.302a.77.77 0 0 1 .768.768v2.304zM21.12 16a5.12 5.12 0 1 0-10.24 0 5.12 5.12 0 0 0 10.24 0z" fill="#fff"/></svg>