<svg xmlns="http://www.w3.org/2000/svg" width="32" height="32" viewBox="0 0 32 32"><path d="M24.32 16c0 4.595-3.726 8.32-8.32 8.32-4.595 0-8.32-3.725-8.32-8.32 0-.547.054-1.082.157-1.6h-5.597v11.059c0 2.374 1.923 4.301 4.301 4.301h18.918c2.374 0 4.301-1.925 4.301-4.301v-11.059h-5.595c.101.518.155 1.053.155 1.6zm1.139-13.76h-18.918c-2.376 0-4.301 1.926-4.301 4.301v4.659h6.966c1.506-2.128 3.987-3.52 6.794-3.52s5.288 1.392 6.794 3.52h6.966v-4.659c0-2.374-1.926-4.301-4.301-4.301zm2.104 5.312c0 .424-.346.768-.768.768h-2.302c-.422 0-.768-.346-.768-.768v-2.304c0-.424.347-.768.768-.768h2.302c.424 0 .768.346.768.768v2.304zm-6.443 8.448c0-2.829-2.293-5.12-5.12-5.12s-5.12 2.291-5.12 5.12 2.293 5.12 5.12 5.12 5.12-2.291 5.12-5.12z" fill="#fff"/></svg>