<svg xmlns="http://www.w3.org/2000/svg" width="32" height="32" viewBox="0 0 32 32"><path d="M25.498 14.362c3.762-1.112 5.966-5.098 4.382-5.178-4.066-.206-7.542-2.176-9.885-3.648-.248-.163-.501-.318-.762-.464v9.16c0 3.029-1.832 5.442-3.909 6.445-3.016 1.456-6.376.542-7.506-2.042s.4-5.859 3.416-7.314c1.669-.805 3.44-.883 4.883-.357v-7.106c-.912-.218-1.861-.339-2.838-.339-6.805 0-12.322 5.587-12.322 12.48s5.517 12.48 12.322 12.48c6.806 0 12.322-5.587 12.322-12.48 0-.555-.035-1.102-.104-1.638z" fill="#fff"/></svg>