<svg xmlns="http://www.w3.org/2000/svg" width="32" height="32" viewBox="0 0 32 32"><path d="M1.075 21.53l.525-2.24-.525-2.315c-.014-.07-.146-.122-.307-.122-.163 0-.294.053-.307.122L0 19.29l.462 2.24c.013.07.144.122.307.122.16 0 .29-.05.305-.122zm3.28 1.243L4.8 19.31l-.445-5.354c-.013-.138-.18-.245-.38-.245-.204 0-.37.107-.38.244L3.2 19.31l.395 3.463c.01.136.176.242.38.242.2.002.367-.106.38-.242zm3.274-.056L8 19.312l-.37-7.13c-.01-.167-.21-.3-.45-.3-.244 0-.443.13-.45.3l-.33 7.13.33 3.406c.007.166.205.298.45.298.24 0 .44-.13.45-.3zm3.266-.05l.304-3.353-.304-7.184c-.008-.198-.232-.355-.512-.355-.282 0-.506.157-.514.355l-.27 7.184.272 3.352c.005.197.23.354.512.354.28 0 .504-.154.512-.354zm3.264-.043l.24-3.31-.24-8.236c-.005-.227-.262-.41-.573-.41s-.566.183-.57.41l-.217 8.234.216 3.31c.005.224.26.408.57.408.31.002.57-.18.574-.406zm2.285.41l11.432.006c2.278 0 4.123-1.786 4.123-3.99s-1.845-3.988-4.123-3.988c-.566 0-1.104.11-1.595.31-.328-3.594-3.446-6.413-7.248-6.413-.93 0-1.837.175-2.637.476-.31.117-.395.235-.397.467V22.56a.488.488 0 0 0 .445.473z" fill="#fff"/></svg>