<svg xmlns="http://www.w3.org/2000/svg" width="32" height="32" viewBox="0 0 32 32"><path d="M1.075 21.53l.525-2.24-.525-2.315c-.014-.069-.146-.122-.307-.122-.163 0-.294.053-.307.122l-.461 2.315.462 2.24c.013.07.144.122.307.122.16 0 .291-.051.306-.122zm3.28 1.243l.445-3.462-.445-5.355c-.013-.138-.179-.245-.381-.245-.203 0-.37.106-.379.243l-.395 5.357.395 3.462c.01.136.176.242.379.242.202.002.368-.106.381-.242zm3.274-.056l.371-3.405-.371-7.131c-.01-.166-.208-.299-.45-.299-.243 0-.442.131-.45.299l-.33 7.131.33 3.406c.008.166.206.298.45.298.242 0 .44-.131.45-.299zm3.267-.051l.304-3.352-.304-7.184c-.008-.198-.232-.355-.512-.355-.282 0-.506.157-.514.355l-.27 7.184.272 3.352c.005.197.23.354.512.354.28 0 .504-.154.512-.354zm3.264-.042l.24-3.309-.24-8.237c-.005-.227-.262-.411-.573-.411s-.566.184-.571.411l-.216 8.234.216 3.31c.005.224.261.408.571.408.31.002.568-.181.573-.406zm2.285.41l11.432.006c2.278 0 4.123-1.786 4.123-3.989s-1.845-3.989-4.123-3.989c-.566 0-1.104.11-1.595.31-.328-3.594-3.446-6.413-7.248-6.413-.93 0-1.837.176-2.637.477-.31.117-.395.235-.397.467v12.658c.003.245.198.448.445.472z" fill="#fff"/></svg>