<svg xmlns="http://www.w3.org/2000/svg" viewBox="0 0 822.2 967" enable-background="new 0 0 822.2 967"><path fill="#fff" d="M396.2 0h4.2c.1 38.6.3 77.2.5 115.9-1.6.2-3.2.3-4.7.5-.2-38.8 0-77.6 0-116.4m14.4 0h4.2c0 38.7 0 77.3.1 116h-4.6c-.2-38.7.4-77.3.3-116m-61 3.6l4.2-.2c4.6 38.4 9.9 76.7 13.9 115.1h-4.4c-4.3-38.4-9.2-76.6-13.7-114.9m107.5-.2c1.4.1 2.9.2 4.3.2-4.5 37.9-9.2 75.8-13.7 113.8-1.5 0-3-.1-4.5-.2 4.4-38 9.5-75.9 13.9-113.8m102.3 15.6l4.1.6c-11.6 38.2-23.7 76.3-35.9 114.4l-4.2-1.6c12.1-37.8 24.1-75.6 36-113.4m-88.3 2c1.4-.5 2.9-.8 4.4-1.1-3.3 33.2-7.9 66.2-11.7 99.3l-4.5-.4c3.7-32.6 8.4-65.2 11.8-97.8m-220 .5l4-1.3c12.2 38.3 24.6 76.5 36.4 114.9l-4.3 1.2c-11.9-38.3-24-76.5-36.1-114.8m84.3-1.2h4.2c4.1 33.4 8.4 66.7 12.3 100.1l-4.5.6c-3.8-33.6-8.4-67.1-12-100.7m203.7 9.1c1.4.4 2.9.9 4.3 1.4-10.7 32.7-20.4 65.7-31.3 98.3-1.4-.3-2.8-.6-4.2-1 10.3-32.9 21-65.7 31.2-98.7m-267.7 2.7l4-1.1c10.6 32.8 21.1 65.7 31.3 98.7-1.3.7-2.7 1.3-4.1 1.9l-31.2-99.5m282.2 111.1l50.7-111.9c1.1.8 2.2 1.5 3.4 2.3-16.5 37.3-33.3 74.4-49.9 111.7l-4.2-2.1m-346.6-108.6l3.6-1.6c17 38 34.4 75.8 51.2 113.9-1.3.4-2.5.8-3.8 1.1-1-.7-1.2-2.1-1.8-3.2-12.8-28.3-25.4-56.7-38.1-85-3.7-8.5-7.8-16.7-11.1-25.2m226-.2l4.2-.4c-1.7 27.5-3.5 54.9-5.6 82.4-1.5.1-2.9 0-4.4 0 1.8-27.3 3.7-54.7 5.8-82m-59.2-.1l4.4.1c1.8 27.4 4 54.9 5.7 82.3-1.6.2-3.1.3-4.6.8-1.6-27.7-3.8-55.4-5.5-83.2m-180.4 5.6l3.8-1.9c17.5 38.1 35 76.2 52.3 114.4l-4.2 1.7c-17.3-38.2-34.5-76.2-51.9-114.2m370.9 108.2c16.8-36.5 33.1-73.1 50.2-109.4l3.9.9c-16.6 36.8-33.3 73.6-50.1 110.3-1.3-.6-2.6-1.2-4-1.8m-1.4-76.2c2.2-5.6 4-11.3 6.5-16.8l3.6 2.2c-10.1 27.2-20.4 54.4-30.3 81.7-1.5-.5-2.9-1-4.3-1.5 8-21.9 16.3-43.7 24.5-65.6m96.3-16.3l3.8 1.7c-21.4 36.1-43.4 72-64.8 108.2-1.4-.7-2.7-1.4-4.1-2.2l65.1-107.7m-417.6 2.9l4.1-1.7c10.4 27.7 20.7 55.4 31.2 83.1l-4.3 2c-10.2-27.8-20.5-55.6-31-83.4m-90.3-.2c1.5-.1 3-.2 4.5-.4 22.3 36.2 44 72.8 66.2 109.2-1.4.7-2.7 1.4-4.1 2.2-22.1-37-44.3-74-66.6-111m324 62.8c1.6-16.1 4.7-32.1 6.7-48.1l4.3.7c-2 16.1-4.6 32-6.7 48l-4.3-.6m-150.7-47.3l4.4-.8 7.3 50c-1.5.3-2.9.6-4.4 1-2.6-16.7-4.8-33.5-7.3-50.2m256.2 82.3c14.2-26.8 28.7-53.5 43.1-80.3 1.3.5 2.7 1 4.1 1.5-14.5 26.9-28.7 53.8-43.1 80.7-1.4-.6-2.8-1.3-4.1-1.9m84.7-80.1l3.6 2.2c-19.2 31.8-38.3 63.7-57.4 95.6-1.3-.7-2.6-1.4-3.8-2.2 6.1-11 13-21.6 19.4-32.4 12.7-21.1 25.4-42.1 38.2-63.2m-519.8 3.9c1.2-.8 2.3-1.6 3.6-2.4l59.2 97.9c-1.2.9-2.5 1.7-3.8 2.6-19.7-32.7-39.1-65.5-59-98.1m41.2-1.1l4.1-1.4c14.6 27.5 29.6 54.8 44.1 82.4-1.4.6-2.8 1.2-4.1 1.8l-44.1-82.8m316.8 7.5l4.4.8-10.9 38.2-4.6-.8c3.6-12.8 7.6-25.5 11.1-38.2m-197.1 2.3l4.4-.8 11.2 38.4c-1.5.4-3.1.6-4.6.6-3.5-12.7-7.5-25.4-11-38.2m350.2 119.6c28.9-32.7 57.4-65.7 86.3-98.3l3.2 2.7c-28.7 32.9-57.4 65.9-86.1 98.9-1.2-1.2-2.3-2.3-3.4-3.3m-12.3-10.3c25-28.9 50.4-57.5 75.5-86.3 1.1.9 2.2 1.7 3.4 2.6-25 29-50.3 57.8-75.4 86.7-1.2-1.1-2.3-2.1-3.5-3m-568.5-74.4c1.1-.8 2.2-1.6 3.4-2.4 26.9 30.9 54.1 61.5 80.8 92.5-1.1 1-2.2 1.9-3.4 2.9l-71.9-82.5c-2.9-3.5-6.1-6.8-8.9-10.5m163.5 40.8c57.8-30.9 124.1-45.4 189.6-42 44.6 2.2 88.9 12.5 129.8 30.8 64.3 28.5 119.7 76.2 158 135.2 1.9 3 4.1 5.9 5.3 9.3-15.5.3-31.1.1-46.6.1-6.2-8.6-12.8-16.8-19.8-24.8 1.8-3.7 4.8-6.9 5.8-10.8-22-25.2-48.2-46.6-76.8-64-1.8 3.6-3.7 7.2-5.7 10.6-8.1-4.6-16.3-9.2-24.6-13.3 2.2-3.5 4.5-7 5.6-11-37.5-18.5-78.4-30-120.1-33.6-55.6-4.9-112.4 4.3-163.6 26.7-4.4 1.8-8.6 4-12.9 5.8 1.1 4.1 3.5 7.7 5.5 11.4-8.5 3.8-16.5 8.5-24.6 13-2.2-3.5-4-7.1-5.7-10.8-27 16.1-51.9 36-73.3 59 2.2 3.5 4.2 7 6.3 10.6-9.1 9.9-17.7 20.2-25.5 31.1-15.8.2-31.5.1-47.3 0 33.7-56 82.9-102.5 140.6-133.3m-139.9-38c-1.6-1.5 1.6-2.5 2.3-3.6 15.7 17.3 31 35.1 46.4 52.7 7.9 9.2 16 18.1 23.8 27.4-1.2 1-2.4 1.9-3.5 2.9-22.8-26.6-46.1-52.9-69-79.4m521 53.5c10.7-17.1 21.7-34.2 32.5-51.3 1.2.8 2.4 1.6 3.6 2.5l-29.9 47.6c-.8 1.3-1.5 2.7-2.1 4-1.4-.9-2.8-1.8-4.1-2.8m-462.5-47.2l3.5-2.6c11.3 18.1 22.9 36.1 34.3 54.2-1.3.8-2.5 1.7-3.8 2.6-11.2-18.2-22.7-36.1-34-54.2m520.7 96.8c33.5-29.7 66.5-60.1 99.9-89.9 1 1 2 1.9 2.9 2.9l-99.7 90.7c-1-1.3-2-2.5-3.1-3.7m-11-10.9c23.1-23.7 46-47.6 69.3-71.2l3.2 2.6c-22.9 24.1-46.2 47.8-69.2 71.8-1.1-1-2.2-2.1-3.3-3.2m-35.6-30.2c11-13 21.8-26.2 32.9-39.1l3.4 2.6c-10.5 13.2-21.8 25.8-32.1 39.1-1.5-.7-2.9-1.6-4.2-2.6m153.2-38.4c1 1 2.1 1.9 3.1 2.8-32.8 29.7-65.8 59.2-98.7 88.8l-3-3.5c32.9-29.3 65.7-58.7 98.6-88.1m-744.9 3.4l3.5-2.5c31.1 28.5 62.6 56.7 94 85.1l-3.2 3.3c-28.7-25.9-57.2-52-85.9-78-2.9-2.7-5.8-5.1-8.4-7.9m41.5 8l3.3-2.8c21.2 22.1 43 43.7 63.9 66.1l-3.6 2.9c-20.9-22.4-42.6-44-63.6-66.2m71.8 1.9l3.2-2.8c9.3 10.6 18.2 21.6 27.3 32.4-1.2.9-2.4 1.8-3.6 2.8-9-10.8-18-21.5-26.9-32.4m-119.9.4c1.1-.6 2.2-1.2 3.2-1.8 31.4 27 61.7 55.3 92.9 82.5l-2.8 3.7c-30.4-27.3-60.9-54.6-91.1-82-.8-.8-1.5-1.6-2.2-2.4m265.1 20.6c60.1-22.2 126.9-25.8 189.1-10.5 67.7 16.4 129.5 55.6 173.6 109.5 23.7 28.9 42.4 61.9 54.8 97.1 16.2 45.5 21.9 94.6 16.8 142.6-7.2 70.1-38.1 137.6-86.8 188.6-45.7 48.7-106.9 82.7-172.5 95.5-48.9 9.7-100 8-148.2-5.1-69.9-18.7-132.7-61.9-175.8-120-45.6-61-68.2-138.6-63-214.5-.7.3-2 1-2.6 1.3.4 4.4.3 8.8.2 13.2-3.6-1.8-7.1-3.8-10.5-5.9-.1 19.4.3 38.9 3.7 58.1 2.5 3.5 7.1 4.5 10.6 6.6 1.8 11.8 4.5 23.4 7.3 35-3.6-1.8-7.1-3.6-10.8-5.2 18.8 74.2 64.5 141.1 126.2 186.4 29 21.4 61.5 38.1 95.8 49.2 47.5 15.4 98.4 20 147.8 13.4 66.1-8.5 129.3-37.5 179.1-81.8 48.5-43 84.5-100.1 101.5-162.7.2-1.2.5-2.4.6-3.5-3.6 1.7-7.1 3.5-10.6 5.3 3.3-11.6 5.3-23.5 7.9-35.3l10.1-5.2c3.2-19.3 4.1-38.9 3.7-58.4-3.4 1.5-6.2 4.2-9.9 5.2-.7-5.5-.4-11-.9-16.5 12.7-.4 25.4-.8 38.1-1.3 2.2 42-2.5 84.4-14.5 124.8-17.7 60.2-51.8 115.4-97.2 158.8-43.5 41.9-97.6 72.7-155.9 88.5-83.6 22.7-175.3 14.9-253.4-22.7-64.7-30.8-119.6-81.4-156.3-142.9-37-61.9-54.6-135-50.1-206.9 12 .4 24 1 36 1.2 1.6.1 3-.8 4.4-1.4 4.3-66.2 30.5-130.7 72.7-181.9 36.6-44.3 85-78.8 139-98.6m-8.9 10c-69.4 28.3-128 82.1-162.3 148.8-38.7 74.4-46.2 164.7-19.6 244.3 3.4-4.3 6.8-8.6 9.9-13.2 2.7-3.9 4.5-8.7 8.3-11.7 5.2-4.1 10.4-8.2 15.8-12.1 12.5-9.5 26-17.7 37.8-28.1 6.7-5.7 13.4-11.4 21-15.9 5-3 8-8.1 11.6-12.5 4.7-6.3 10.2-11.9 16.6-16.5 11.7-4.8 23.9-8.3 36.2-10.9 5.9-1.4 10-6.3 15.4-8.7 10.6-4.3 21.5-8 31.6-13.2 5.5-4 11.2-8.1 14.8-14 6.9-11.2 14.7-21.8 22.6-32.4 4.7-5.8 11.4-9.4 17.1-14.1 10-7.2 17.5-17.2 27.3-24.7 6.8-2.1 14-2.8 21-4.5 5.4 3.6 10.4 7.8 15.7 11.5 6.6 4.6 13.8 8.2 20.6 12.4 3.3 2 5 5.7 7.4 8.5 4.1 2 8.8 2.6 12.8 5 5.8 4.7 11.4 10.1 14.1 17.2 3.3 2.5 7.6 3.7 11.3 5.6 7.1 3.6 15.4 3.8 22.4 7.6 3.8 2.5 6.7 6 10.3 8.7 3.5 2.3 7.8 2.8 11.5 4.5 3.4 4 6.2 8.4 9.4 12.6 5.3 7 7.3 16.1 13.4 22.6 7.3 8 15.5 15.2 23.4 22.6 4.4 4.4 11.3 4.9 15.5 9.6 12 12.4 24.5 24.3 37.6 35.5 8.6 9.4 14 21.7 24.5 29.4 6.9 4.5 14.2 8.2 21 12.9 7.9 5.9 15.5 12 23.2 18.1 26.8-70.8 26.2-151.2-.4-222-13.1-35-32.6-67.6-56.9-95.9-48.4-56.5-117.2-95.2-190.8-106.6-57.5-9.3-117.4-2.6-171.1 19.6m105.2 168.1c-6.1 4.8-11.2 10.8-17 16.1-6.3 6.2-13.7 11-20.6 16.4-2.2 1.7-4.4 3.6-6 5.9-7.6 10.4-15.4 20.8-22.1 31.9-3.7 6.2-9.9 10.4-15.6 14.6-10 5.1-20.6 8.7-30.9 12.9-6.1 2.4-10.6 8.1-17.3 9.3-11.7 2.4-23.2 6-34.4 10.3-9.1 5.7-15.3 14.6-21.8 23-3.9 5.3-10.2 7.8-15.3 11.8-6.9 5.2-13.7 10.8-19.9 16.9 3-.7 5.9-1.8 8.8-3-.8 3.3 1.1 6.4 2.1 9.4 3.9-4.2 6.6-9.4 9.5-14.4 2 1.3 3.9 2.7 5.8 4.1-2.1 7.3-3.4 14.8-5.2 22.1-2.5 5.7-8.8 9.1-10.3 15.3-.4 8.6-4.8 16.1-8.1 23.8 2.1 2.6 3.9 5.5 6.6 7.5 4.1 1.8 8.6 2.8 12.8 4.3l3.7 5.9c-.4 1.7-1.5 3.1-2 4.8-2.9 7.3-1.9 15.3-3.2 22.9-.7 3.9-.8 8.3-3.6 11.5-4.6 5.5-8.5 11.4-12.6 17.3-1.8 2.6-2.1 5.8-2.8 8.7 2.2-.3 4.4-.7 6.6-1.1 2.7-4.7 6.6-8.5 11.1-11.5.1 2.7.4 5.4.3 8.1-1.2 2.3-3.3 4.1-4.8 6.2-4.8 5.4-3.8 13.2-6.4 19.6-1.2 4.3-4.8 7.7-5.4 12.2 5.5 6.8 12 12.7 18.5 18.5 4.8-5.7 9.1-12.2 10.2-19.6-.1-6.8.3-13.5 2-20.1.1-1 .6-1.7 1.3-2.3 3.2-3 6.8-5.8 9.1-9.5 1.7-6.6 1.8-13.4 2.5-20.1-.2-4 3.2-6.7 5.1-9.8 5.3-8 16.5-8.6 21.9-16.5-1.7-1.2-3.4-2.2-5.2-3.2 6.1-7.1 12.7-13.7 19.4-20.3l.6-6.4c-2.7.7-5.4 1.4-8 2.2-3.5-4.1-5.4-9.5-5.6-14.9.8-2.4 2.1-4.6 3.1-6.9-1.4-3-3.5-5.8-3.8-9.1.1-5.6 1-11.2 1.7-16.8-1.5-2.2-3-4.5-4.4-6.7 3.2-3.8 6.4-7.6 10-11.1-1.3-1.4-2.6-2.8-4-4.1-5.4 5.2-10.6 10.5-15.9 15.8-6.6 7.1-9.2 16.7-14.3 24.8-6 10.7-15.6 18.5-23.5 27.6-4.4-.6-8.6-2.8-11.6-6.2 2.3-1.5 4.6-3.1 6.7-4.8 0-5.7.4-11.7 3.2-16.9 2.7-4.5 7-8.1 8-13.5.7-3.6 3.1-6.4 5.3-9.1 3.8-4.5 7.3-9.3 11.2-13.8 3.8-4.6 9.6-6.6 14.4-10l-2.7-6.3c-1.9.8-3.8 1.6-5.8 2.4-1.2-2.6-2.4-5.3-2.6-8.2.8-4.4 5.2-7.3 5.3-11.9.5-4.3.8-8.7 1.2-13 2.9-1.2 5.7-3 8.9-3.2 8.9 1.9 18.1 2.1 27.2 2.4 4.8.2 9.1-2.3 13.9-2.2 6.8.2 13.5 1.3 20.1 2.2 5.2-7.3 10.3-14.7 14.4-22.8 1.3-2.8 3.9-4.6 6.4-6.4 4.8 2.8 8.8 6.9 12.2 11.3 2.4 0 4.7 0 7.1-.1-1.1 4.8-4.3 8.6-7.4 12.1-7.3 1.3-14.9 2.8-20.8 7.7 3.3 3 6.9 5.9 11.1 7.5 10.4 3.6 21.3 5.5 31.5 9.4.8 2.8 1.8 5.5 2.8 8.2-3.3 5.5-8 10-13 14 1.1.7 2.3 1.4 3.5 2.2 5.1-.9 10.5-1.8 14.7-5.1 3.3-3 3.9-7.9 6.4-11.3 4-.6 8-.5 12-.3 5.1.3 9.4 3.2 13.7 5.6 1.7.9 3 2.4 4 4 2.2 3.5 4.8 6.8 7.5 10 2.9-.1 5.7-.1 8.6 0 4.3 4.4 7 10.1 9 15.9 2.4.8 5.1 2.1 5.7 4.8-2.4 7-8.1 12.2-11.4 18.7-1.5 6.9-1.5 14.1-1.8 21.2 3.1 2.2 6.5 4.1 8.7 7.2.9 4.2.9 9.2 4.7 12 1.4-4.2 2.7-8.3 3.9-12.5-2.8-3.6-7-6.7-7.3-11.6-1.2-5.9 1.3-11.5 3.2-16.9l5.7-1.1c2.6-2.8 5.5-5.4 8-8.3 1-4.5 1-9.5-1-13.8-1.5-3.1-1.9-6.7-1-10 3.2-.6 6.6-.7 9.7-1.6 3.4-4.2 6.3-8.7 8.9-13.4-.6-4.5-2.7-8.6-3.4-13.1.2-2.8 1.2-5.3 2-8 5 .4 8.1 4.7 11.6 7.6 1.7-5.2 3.3-10.4 4.5-15.8l-9.1-4.4c-7.2 3-14.8 5.6-22.7 5.7.5-2.6.3-5.6 2.3-7.6 3.5-4.2 6.7-8.6 9.5-13.3-2.7-4.8-4.9-9.8-6.8-14.9-.9-2.5-3.1-4.2-4.9-5.9-3.9-3.5-7.6-7.1-11.5-10.5-.7 5 2.2 9.2 5 13 .2 3.7 0 7.5 0 11.2-3.9 4.3-5.2 10.4-4.9 16.1.7 4 2.5 7.8 2.9 11.9-2.3 7.3-9.4 11.3-13.8 17.2-3 3.4-3.6 7.9-5 12.1-1.4.1-2.8.3-4.3.4-.4-2.6-1.1-5.2-1.3-7.8 1.1-5.5 5.5-9.6 10.1-12.6-1.1-3.3-1.9-7.1-4.9-9.2-2-1.9-5.2-3.1-5.6-6.2-.3-3.3-.5-6.6.1-9.9 1.4-4.3 5.2-7.3 7.4-11.2 2.4-6.6 3.4-14 .5-20.6 1.6-2.3 3.7-4.4 4.7-7.1-2.1-7.7-4.6-15.5-9.1-22.1-2.9-4.1-2.6-9.4-3.1-14.1-.6-3.7.4-7.3 1.2-10.9.9-4 .5-8.1 1.1-12.1.5-3 2-5.8 1.4-8.9-.6-3.9-1.9-7.6-2.1-11.6-5.5 1.4-11.4 1.7-16.9 3.8m136.8 122.9c-1.2 4.9-1.8 10-1.5 15 2.8 4 5.8 7.8 8.1 12.1 3 5.6 8.1 9.8 10.5 15.6 2.3 5.5.3 11.7 2.5 17.2 2.5 6.4 6.3 12.2 10.1 17.9 1.2 2.3 4 2.5 6.2 3.3 1.6-1.5 3.3-3.1 5-4.6-.3-9.7-.5-19.5 2.5-28.9-1.9-6.4-4.5-13.1-3.4-20-4-2.2-8.5-3.7-11.3-7.5-7.6-9.2-18.4-14.7-28.7-20.1m-397.3 74.6c-4 3.3-8.7 6.1-11.1 11-4 7.5-9.8 13.7-14.6 20.7 5.3 14.8 11.3 29.3 18.5 43.2 1.5-5.1 2.6-10.2 4-15.3 2.1-7.5 7-13.8 9.6-21 2.4-9.9 1.4-20.1 1.2-30.2 2.5-2.4 5.2-4.7 7.5-7.3 2.9-3.3 4.2-7.6 5.7-11.6-1.2-.8-2.5-1.5-3.7-2.2-5.8 4-11.5 8.3-17.1 12.7m487.2 29.2c-2.7 2-6 2.5-9.1 3.3-7.8 2.1-16.2-.8-23.9 2-5.2 1.7-10.3 3.4-15.5 5-1.2.4-2.7.7-3.2 2-4.2 7-9 13.5-14.2 19.8-1 1.2-2 2.4-2.3 4-1.5 5.5-2.5 11.2-3.1 16.9.6 10.3 7.4 18.4 12.1 27.1 2.6 11.1 3.6 22.5 3.7 33.9-.5 5.5-3.1 10.5-5.1 15.5-3.8 2.9-7.8 5.6-11.6 8.4-6.1 4.4-14.3 4.2-20.5 8.4-4.6 3.1-9 6.4-13.5 9.5-5.1 3.3-7.5 9.2-10.5 14.2-.2 3.3 0 6.7-.1 10-3.7.9-7.4 1.8-11.1 2.5-7.7 1.1-15.5.1-23.1 2-12.5 3.1-25.1 6-37.9 8-6.9.9-11.9 6.3-17.6 9.7-1.3 5.3-2.8 10.6-4 16 18.6.2 37.2-1.7 55.6-4.9 5.1-.7 8-6 13.2-6.6 9.3-1.9 18.6-3.8 27.7-6.9 1.6-.6 2.8-1.8 4.1-3 5.8-5.5 11.7-11 17.6-16.5 3.1-3 4.9-7 7.4-10.4 4.6-5.7 10.9-9.8 15.4-15.6 2.8-6 3.9-12.8 7.8-18.3 3.4-6.3 9-11 14.5-15.5 6.8-5.4 15.1-8.5 22-13.8 3.8-3.6 7.1-7.8 10.6-11.7 1.8-2.2 4-4.2 4.9-7 2.7-8.1 3.7-16.8 7.2-24.7 3.4-7.9 6-16.2 10.4-23.6 4.2-7 7.2-14.7 9.5-22.5 2-11.3 4.1-22.8 3.8-34.4-7.5 5.3-14.2 11.5-21.2 17.2m43.8 14.8c1.5 2.3 2.2 5.3 4.2 7.2l17.9 5c1.6 6 2.5 12.5 6.1 17.8 2.9-4.4 5-9.2 7.2-14-2.3-3.9-4.7-8-8.8-10.2-7.4-4.7-15.7-7.5-23.9-10.4-1.1 1.5-1.9 3-2.7 4.6m-338.6 33.5c-8.6 5.7-17.3 11.2-25.5 17.4-5.8 4.2-13.2 3.9-19.7 6.5 1.9 1.5 3.8 3 5.7 4.4 4.9-1.7 9.9-3.2 14.8-4.8-.3 2.3-.5 4.7-.7 7l-4.5 2.1c1.3 1.5 2.6 3 4 4.4l7.6-3.6c.7 6.4.5 12.9-1.1 19.1-6.8 6.3-13.5 12.9-21.8 17.2.5 2.1.6 4.4 1.5 6.4l4 .6c-2.2 9.6-1.2 20.7-8 28.6-6.4 4.9-12.5 10.7-20.4 13.3-2.8 3.5-4.7 7.5-6.8 11.4 6.5 3.7 13.3 6.9 19.9 10.3 2.9-4.9 4.4-10.7 8.6-14.8 6.4-6.4 12.8-13 16.6-21.2 2.3-4-.9-8.5.8-12.6 1.5-4 2.7-8.1 4.8-11.8 2-1.8 5-2.2 7.4-3.4-.6 5.1-.6 10.3-1 15.5 3.2-1.7 6.5-3.5 9.9-4.8 4.3-1.1 4.5-6.3 6.6-9.5 4.1-6.2-.2-14.1 3.5-20.5 2.7-5.2 4.9-11.2 3.9-17.2-2.7-5.8-6.1-11.4-8-17.6 1.5-3.3 2.3-7 4.3-10.1 3.4-3.5 9.4-3.5 11.8-8.2 4-4.2-.6-9.4-2.7-13.3 4.2-3.2 8.3-6.4 12.4-9.7-3-1.5-6.2-2.5-9.4-3.7-5.5 8-10.9 16.3-18.5 22.6m380.2-374.5c37.5-26.4 74.8-53 112.4-79.2l2.5 3.2c-37.3 26.6-74.7 53.1-112.1 79.7-.9-1.3-1.9-2.5-2.8-3.7m-9.1-11.5l80.8-63.4c1 1 2.1 2 3.1 3.1-27 21.3-54 42.6-81 64-1-1.3-2-2.5-2.9-3.7m-697.4-52.4c.1-1.5.2-3.1 1.2-4.4 36 25 71.7 50.6 107.6 75.8-.9 1.1-1.8 2.2-2.7 3.4-33-22.7-65.4-46.2-98.1-69.3-2.6-1.9-5.2-3.9-8-5.5m39.3 3.2c.9-1 1.7-2 2.7-2.9 1.5.6 2.7 1.9 4 2.9 23.9 18.7 47.5 37.5 71.5 56-.8 1.3-1.6 2.6-2.3 3.9-25.5-19.8-50.7-39.8-75.9-59.9m676.7 73.3c33.5-23.3 66.7-47.1 100.1-70.6l2.7 3.2c-33.5 23.8-66.9 47.7-100.5 71.4-.8-1.3-1.6-2.7-2.3-4m-316.9-64.1c2.4-.1 4.9-.2 7.3-.4.5 15 .8 30 .8 45 .1 4-3.4 7-7.1 7.5-3.4.4-7.2.8-10.2-1.2-2.4-1.5-3.3-4.4-3.5-7.1-1.5-14.2-3.1-28.4-4.5-42.6 2.4-.3 4.8-.6 7.2-.7l3.7 43.6c.1 4.8 8.6 4.3 8.3-.5-.6-14.4-1.2-29-2-43.6m33 .5c2.6.1 5.2.1 7.8.6 1.2 1.5 1 3.7 1.5 5.5 2.1 10.7 3.3 21.5 5.2 32.3 1.5-12.1 3.5-24.2 5-36.2 2.3 0 4.5.3 6.7.8l-8.5 51c-2-.3-4.1-.6-6.1-1-1.7-12.8-3.8-25.6-7.1-38-.9 12.3-2.1 24.6-3.3 36.9-1.6-.1-3.2-.2-4.7-.3.9-17.2 2.1-34.4 3.5-51.6m-430.5 7.5c.9-1.1 1.7-2.2 2.6-3.2 31.9 22.3 63.5 45 95.5 67.3l-2.7 3.8c-31.7-22.7-63.6-45.3-95.4-67.9m342.1-.6c3.7-1 7.9-1.9 11.6-.1 2.5 1.1 3.7 3.8 4.1 6.3l6.5 33.2c.6 3 .5 6.6-2 8.7-3.3 2.7-7.8 3.7-11.9 3.2-3.2-.5-5.6-3.3-6.4-6.3-3.3-11.6-6.8-23.2-10-34.8-1.3-5.3 3.6-9.1 8.1-10.2m2.4 4.4c-2.1.4-4.2 2.4-3.3 4.8 3.1 11.6 5.9 23.4 9.2 35 1.6 4.4 9.7 1.5 7.8-3-2.5-11.3-5-22.6-7.6-33.8-.1-3.1-3.6-4-6.1-3m136.5-3.1c5.1 1.1 10.1 2.5 15 4.3 4.1 1.6 7.9 6.1 6.1 10.7-3.8 11-7.8 22-11.7 33-1.2 3.7-5 6.2-8.8 5.6-4.5-.7-8.9-2.4-13.3-3.5 4-16.8 8.6-33.4 12.7-50.1m5.8 6.6c-3.6 13.5-7.7 26.8-11.4 40.2 2 .6 4 1.5 6.2 1.5 2-.1 2.8-2.2 3.3-3.9l9.9-30.3c.3-1.2 1-2.5.2-3.7-1.7-2.8-5.4-2.9-8.2-3.8m-186.2 6.6c3.7-1 8.6-.5 10.4 3.4 1.9 4.2 3.6 8.6 5 12.9.8 2.8-.6 5.6-2.5 7.6 5.1 6.6 9.9 13.5 14.2 20.6l-6.1 2.4c-4.3-6.7-8.6-13.4-13.6-19.7l-4.5 2c3.2 7.1 6.5 14.2 9.9 21.2-1.8 1-3.7 1.9-5.6 2.7-7.6-15.5-15.5-30.9-23-46.5 5.2-2.3 10.3-5.1 15.8-6.6m-7 8.1l8 17.2c2.7-1.3 5.9-2.1 7.8-4.7.5-3.2-1.7-6-2.7-8.9-1.2-2.3-1.6-5.6-4.3-6.5-3.1-.2-6 1.7-8.8 2.9m235.1-4.5l6.6 3c-7.3 15.7-15.2 31.1-22.9 46.6-1.9-.8-3.7-1.8-5.5-2.8 7.5-15.6 14.6-31.2 21.8-46.8m194.1 51.1c19.9-13.2 39.6-26.7 59.5-40l2.2 3.8c-20 13.3-39.7 27.2-59.8 40.3-.6-1.3-1.3-2.7-1.9-4.1m-164.3-35.3c2.4 1.4 4.8 3 7.1 4.5-3.5 12.4-7.7 24.7-12.1 36.8 7.2-10.1 14.4-20.2 21.8-30.2 1.8 1.3 3.7 2.7 5.4 4.1l-31.3 41.3c-1.6-1.2-3.3-2.4-5-3.6 4.3-12.4 7.9-25 11.6-37.6-7.1 10.2-13.5 21-20.5 31.4-1.4-.9-2.8-1.7-4.3-2.6l27.3-44.1m-303 4.5c3.6-1.8 8.7-2 11.2 1.7 2.4 3.6 4.7 7.3 6.8 11.1 1.6 2.8.5 6-1 8.5 6.4 5.3 12.2 11.4 17.8 17.5l-5.7 3.6c-5.4-5.9-10.9-11.7-17.1-16.8l-4 2.9c4.6 6.3 8.9 12.8 13.6 19l-4.9 3.9c-10.6-13.7-20.9-27.7-31.2-41.5 4.7-3.5 9.3-7.3 14.5-9.9m-5.4 9.3l10.9 15.6c2.6-2 6.4-3.4 7.1-7-1.8-4.4-4.8-8.2-7.5-12.1-3.7-2.9-7.4 1.8-10.5 3.5m-217.4-3.8l2.3-3.5c18.3 12.4 36.5 24.7 54.8 36.9l-1.9 4c-.8-.4-1.6-.8-2.3-1.2-15.7-10.7-31.4-21.4-47.2-32-1.9-1.3-3.9-2.6-5.7-4.2m182.5 26.4c1.9-1.8 3.8-3.7 5.9-5.3 9.6 10.9 19.6 21.6 29.3 32.5 2.5 2.5 3 6.7 1.1 9.8-1.9 3.3-4.9 6.2-8.4 7.8-2.9 1.1-6.3.5-8.5-1.8-10.8-9.7-21.4-19.7-32.2-29.3 1.7-2.1 3.5-4.2 5.6-5.9 9.6 9.7 19.7 19 29.4 28.6 1.5 1.3 2.9 3.4 5.2 2.7 2.5-1.1 5.4-4.5 3.1-7-10.1-10.9-20.4-21.4-30.5-32.1m379 2.7c1.8-2.1 4.4-4.1 7.4-3.7 4.4.6 8 3.9 10.7 7.2 2.3 2.8 3.9 7 1.6 10.4-2.4 3.3-5.8 5.6-8.7 8.4-1.4-1.5-2.8-3-4.1-4.5 2.5-2.5 5.3-4.8 7.5-7.6 1.4-4-4.9-9.8-8.2-5.8-8.1 8.5-16.4 16.9-24.5 25.5-3.2 3.4 2.7 9.3 6.1 6.2 3-2.6 5.7-5.4 8.5-8.2-1.2-1.2-2.3-2.3-3.4-3.5 1-1.1 2-2.1 2.9-3.2 3.1 2.7 5.7 5.8 8.6 8.7-4.7 4.9-10 9.1-14.9 13.8-1.2 1-2.3 2.5-4.1 2.7.2-1.4.3-2.9.6-4.3-7.3-.2-14.9-9.7-9.6-16.3 7.9-8.7 15.9-17.2 23.6-25.8m-550.1 19.9c29.8.3 59.7-.2 89.5.2-3 4.8-5.5 10-9.1 14.4-4.2.5-8.5.3-12.8.3-6.8 12.8-12.9 26.1-18.2 39.7-.2 1.1-1.2 2.2-.8 3.3 2.9 2.2 6 4.3 8.9 6.4-3.7 10.1-6.8 20.4-9.6 30.7-13.2.5-26.5.6-39.8 1.4 5.8-28.2 15.6-55.5 28.1-81.5-12.1-.1-24.2-.1-36.3 0 .2-5 .1-10 .1-14.9m638.7 0c29.5.2 59.1-.5 88.6.3l-.1 14.6c-11.8 0-23.5-.1-35.3.2 12.5 25.7 21.9 52.9 28 80.8l-39.8-1.4c-2.7-9.8-5.7-19.4-9-29l9.2-6.5c-5.5-15.2-12.3-29.8-19.7-44.1-4.4-.1-8.7-.3-13.1-.3-2.9-4.8-5.9-9.7-8.8-14.6m-503.1 18.6c2.3-2.7 6.2-5.4 9.9-3.6 3.5 1.9 6.5 4.6 9.6 7l-4.4 6c-3.1-2-5.8-4.7-9.3-6.1-2.8.1-4.3 2.8-5.6 5-.9 1.6-1 4.1.9 5 2.9 1.8 5.6 4.1 8.8 5.3 6.5-1.5 12.2-5.7 18.8-6.7 4.8.6 8.1 4.7 11.9 7.2 3.6 2.3 4.1 7.3 2.2 10.9-1.9 3.8-4.4 7.8-8.4 9.5-2.4 1.1-5 .3-7.1-1-3.2-1.9-6.4-3.8-9.4-6l3.6-5.4c3.1 1.9 6.1 4.1 9.3 5.9 3.9 2.2 8-3.4 6.8-7-3.4-2.7-6.8-5.9-10.9-7.1l-18 6.8c-3.1.1-5.6-2.2-8.2-3.6-3.2-1.9-7.3-3.9-7.4-8.2.4-5.4 3.6-9.9 6.9-13.9m445.3.4c3-2.2 6.1-5.6 10.3-4.5 4.9 1.8 7.9 6.5 10.3 10.9 1.8 3.3 2.9 8.1-.2 11-3 2.5-6.6 4.2-9.9 6.3-1.3-2.1-2.6-4.2-3.9-6.2 2.9-2.1 6.2-3.7 8.8-6.1 1.6-3.1-1.1-6.4-3.4-8.3-2.2-1.8-4.3.7-6.1 1.8-1.9 1.7-4.8 2.7-5.8 5.1-1.1 6.6 1.1 13.5-1.1 20-1.9 3.1-5.6 4.4-8.4 6.5-2.8 2-6.6 3.8-10 2-3.6-2-6.1-5.7-7.8-9.4-1.4-2.9-1.2-6.7 1.2-9 3.2-3 6.9-5.4 10.3-8 1.3 1.7 2.5 3.4 3.7 5.2-3.1 2.2-6.2 4.2-9.1 6.7-2.9 2.4-.3 6.4 2.2 8.1 1.7 1.3 3.5-.4 4.9-1.2 2.5-1.8 5.4-3.1 7.4-5.5 1.5-6.3-.3-12.9.8-19.3.9-3 3.7-4.4 5.8-6.1m13.6 34.6c2.9-1 6.4 1.7 5.6 4.8-.4 2.9-4.2 4.7-6.6 2.9-2.9-1.7-2.3-6.9 1-7.7m-460.9.8c2.9-1.5 6.9.6 6.7 4-.2 3-3.9 5.2-6.5 3.5-2.8-1.4-2.8-5.8-.2-7.5m186.3 28.5c5.5-4.3 10-10.3 17.1-11.9-1.3 3.8-3.5 7.1-5.8 10.3 2.6.9 5.2 1.9 7.9 2.7 1.5-1.4 3.4-2 5.4-1.4-2.7 3.8-7.3 5.8-10 9.7l.3 2.9c4.4-.1 8.8-.6 13.2-.4-2 5-7.1 8.2-8.3 13.5-.7 2.4-.7 4.9-.7 7.3l4.3.1c-1.5 4.6-5.7 7.3-8.4 11.1-4 5.5-7.3 11.6-10.5 17.6-2 4-1 8.7.6 12.7-2.4 5.5-7.1 9.4-11.1 13.7-2.6 2.8-4.8 6-8 8.1-1.3 1.4-2.5-.5-3.4-1.3 4.4-5.6 10.1-10.4 13.1-16.9l3-33.9c1.9-5.7 2.5-11.9 1.1-17.8-5.1 4.9-7.7 12-13.3 16.5-2.6 2.7-6.6 2.4-9.6 4.4-5.3 3.4-10.6 7-14.7 11.9-2.2-1.2-4.4-2.4-6.5-3.6 2.8-4.8 7-8.6 10.9-12.6 5.4-6.2 12.8-10.2 18.5-16.1l-5-4.3c5.3-8.6 12-16.2 19.9-22.3m-287.9 280.9c2.8-2 6.5-1.2 9.7-1.1-16.8 11.6-33.9 22.7-50.6 34.3l-2.5-3.6c14.4-10 28.9-19.7 43.4-29.6m648.2 5.2c.9-1.1 1.8-2.2 2.8-3.3 19.2 12.6 38.1 25.8 57.1 38.6-.6 1.3-1.1 2.6-1.6 3.9-19.6-12.8-38.9-26-58.3-39.2m-724.2 67.8c31.2-22.2 62.4-44.3 93.6-66.6.9 1.3 1.7 2.6 2.6 3.8-31.3 21.9-62.2 44.3-93.7 65.9-.9-1-1.7-2-2.5-3.1m718.6-58.7c32.8 23.4 65.8 46.4 98.3 70.1l-2.4 3.3c-32.8-23.2-65.5-46.4-98.4-69.5.8-1.4 1.6-2.6 2.5-3.9m-712.6 73.9c32.1-22.8 64.3-45.6 96.3-68.5l2.8 3.5c-34.9 24.9-70 49.7-105.1 74.4-.9-1.1-1.7-2.3-2.5-3.4 2.8-1.9 5.7-4 8.5-6m700.8-57.3c.8-1.2 1.7-2.3 2.6-3.5 37 25.7 73.4 52.2 110.2 78.1l-2.5 3.3c-36.8-25.9-73.5-51.9-110.3-77.9m-669.3 59.3c24.5-19.5 49.2-38.9 73.8-58.3.9 1.2 1.8 2.4 2.8 3.7-24.5 19.2-48.9 38.5-73.5 57.6-1.1-1-2.1-2-3.1-3m660.1-47.6l2.8-3.2c5.6 3.4 10.4 7.7 15.5 11.7 21.3 16.8 42.6 33.5 63.8 50.4-1.1.9-2.3 1.9-3.4 2.9-26.2-20.8-52.5-41.3-78.7-61.8m-666.4 85.6c30.5-27.3 60.9-54.7 91.2-82.1l3 3.6c-30.5 27.1-60.8 54.3-91.2 81.5-1-1-2-1.9-3-3m655-72c1-1.2 2-2.4 3.1-3.5 32.2 29 64.6 57.8 96.6 87-1.1.9-2.1 1.8-3.1 2.7-32.2-28.7-64.2-57.6-96.6-86.2m-648.3 82.9c30.3-28.4 61.6-55.8 92-84.1 1.2 1 2.3 2.1 3.4 3.3-30.8 27.7-61.2 55.7-92.2 83.2-1.2-.8-2.2-1.7-3.2-2.4m640.7-74.4c.5-1.4 1.9-2.3 2.9-3.4l97.6 88.7c-1 1-2.1 2.1-3.2 3-32.3-29.6-65-58.8-97.3-88.3m-599.1 66.2c20.5-21.4 41.3-42.6 61.8-64.1.9 1.2 2.6 2.1 3 3.5-20.6 21.1-41.1 42.5-61.8 63.5-1-.9-2-1.9-3-2.9m588.1-54.7c.1-1.5 1.9-2.5 2.8-3.6 22.5 23.1 44.8 46.4 67.2 69.5l-3.2 3.1c-22.2-23.1-44.7-45.9-66.8-69m-594.2 92.1c26.6-29.9 52.6-60.3 79-90.4 1.1 1.1 2.2 2.1 3.2 3.2-26.3 30.1-52.6 60.1-78.9 90.1-1.2-.9-2.3-1.9-3.3-2.9m583.5-81c-1.5-1.7 1.6-2.9 2.4-4.1 28.2 32.1 56.1 64.4 84.2 96.5-1.1 1-2.1 1.9-3.1 2.9-27.8-31.8-55.6-63.6-83.5-95.3m-538.7 54.3c15.3-17.6 30.6-35.2 46-52.7 1.1 1 2.2 2.1 3.2 3.1-22.5 25.9-45.3 51.7-67.8 77.5-1.1-.8-2.2-1.6-3.4-2.4 7-8.8 14.8-17 22-25.5m525.8-44.5c1.1-1.1 2.3-2.2 3.5-3.2 24.4 28.2 49.1 56.2 73.4 84.4l-3.6 2.5c-24.3-28-48.8-56-73.3-83.7m-468.2 2l3.8 2.7c-8.1 10.2-16.7 20-25 30-1.1-.9-2.2-1.8-3.4-2.7 8-10.2 16.8-19.7 24.6-30m456 7.4c1.2-.9 2.5-1.8 3.7-2.8 10.1 12.3 20.4 24.3 30.4 36.7l-3.5 2.6c-10.2-12.1-20.5-24.2-30.6-36.5m-444 1.9c1.3.8 2.5 1.6 3.8 2.5-10.8 17.2-21.6 34.4-32.6 51.4-1.1-.9-2.2-1.8-3.4-2.6l32.2-51.3m432 7.1c1.2-.9 2.4-1.9 3.7-2.8 10.3 16.1 20.3 32.5 30.7 48.5l-3.6 2.4c-10.5-15.9-20.4-32.2-30.8-48.1m-476.8 97.3l57.3-95.5c1.3.8 2.6 1.7 3.7 2.8-19.3 31.4-38.2 63-57.2 94.5-1.2-.6-2.5-1.2-3.8-1.8m464-88.9c1.3-.9 2.6-1.7 4-2.3 18.5 31 37.2 61.8 55.6 92.8-1.3.6-2.6 1.2-3.9 1.7-18.5-30.8-37.1-61.5-55.7-92.2m-455 104.6c20.7-34.1 41-68.5 61.8-102.5l3.7 2.6c-21.8 35.5-43 71.2-64.7 106.7-.8-.4-2.4-1.2-3.2-1.7.3-1.9 1.5-3.5 2.4-5.1m441.4-96.5c1.2-.7 2.3-1.4 3.5-2 7 9.6 12.3 20.3 18.7 30.2 14.9 24.9 30 49.7 44.7 74.7l-3.5 1.8c-21.3-34.7-42.3-69.7-63.4-104.7m-409.2 81.8c14-26.8 28.3-53.4 42.6-80l3.9 2.1c-14.1 26.3-28.1 52.6-42.4 78.8l-4.1-.9m395.7-74.3c1.3-.7 2.7-1.4 4.1-2 13.8 25.9 27.7 51.8 41.5 77.8-1.4.3-2.7.6-4.1 1-14.2-25.5-27.7-51.2-41.5-76.8m-338.6 1.9c1.2.7 2.5 1.4 3.7 2.2-16.4 37.1-33.6 73.8-50.4 110.7l-3.9-1.5c16.9-37.2 33.6-74.4 50.6-111.4m321.9 6.3l4.2-1.8c16.1 35.6 32.2 71.1 48.4 106.6-1.4.4-2.7.8-4.1 1.3-16-35.5-32.3-70.8-48.5-106.1m-309.6 0c1.4.4 2.7.8 4.1 1.3-16.3 36.9-33 73.7-49.8 110.4-1.2-.6-2.4-1.1-3.7-1.7 16.4-36.7 32.7-73.5 49.4-110m299 4.7l4.1-1.8 48.7 108.8c-1.3.4-2.6.9-3.9 1.4l-48.9-108.4m-313.5 81.5c9.8-26.7 19.8-53.4 29.8-80 1.4.7 2.7 1.5 4.1 2.3-10.3 26.3-19.8 53-30 79.3-1.3-.6-2.6-1.1-3.9-1.6m297.9-75.4c1.3-.6 2.7-1.1 4-1.6 10.2 26.1 19.7 52.5 29.5 78.8-1.3.3-2.6.7-3.9 1.1-10.2-26-19.7-52.3-29.6-78.3m-254.5 4c.3-1 .7-2 1.2-2.9l4 1.3c-11.4 37.1-23.4 74-35.1 111l-4.1-1c11.3-36.1 22.8-72.2 34-108.4m239.5 1.1c1.4-.5 2.9-.9 4.3-1.3 11.5 36.8 23.4 73.6 34.6 110.5l-4.3.4c-11.2-36.7-23.1-73.1-34.6-109.6m-223.2 1c1.5.4 3 .9 4.4 1.4-8.8 27.2-17.3 54.5-26 81.6-1.3 4.5-2.6 9.1-4.6 13.3l-3.8-.5c9.7-31.9 20.1-63.8 30-95.8m207.9 3.1l4.5-.6c9.5 31.7 19.9 63 29.5 94.6-1.4.4-2.7.7-4.1 1-9.9-31.6-20.4-63.2-29.9-95m-192.6 1.2l4.3 1.2c-3.4 11.5-6.3 23.1-10.3 34.5-1.4-.2-2.7-.5-4-.7 3.1-11.8 6.6-23.4 10-35m177.1 3c1.5-.4 3-.7 4.5-1 3.2 11.5 6.8 22.8 9.8 34.4-1.4.3-2.8.6-4.2 1-3.4-11.6-6.8-23-10.1-34.4m-162.6.4l4.5 1.1-6.8 45.9-4.3-.9c2.2-15.3 4.5-30.7 6.6-46.1m144.3 3c1.5-.2 3-.4 4.6-.6 2.1 14.6 4.3 29.1 6.3 43.7-1.5.3-2.9.6-4.3.9-2.2-14.7-4.3-29.4-6.6-44m-128.6.2l4.5.4c-3.9 32.1-7.9 64.2-11.9 96.2l-4.1-.3c3.6-32.1 7.6-64.2 11.5-96.3m16.2 2.1c1.4.2 2.9.4 4.4.6-4.6 36.9-9.1 73.9-13.8 110.8-1.4-.1-2.8-.2-4.1-.4 4.5-36.9 8.7-74 13.5-111m96.8-.1c1.5-.2 2.9-.3 4.4-.4 3.7 31.6 7.9 63.1 11.3 94.7l-4.1.3c-3.9-31.5-8-63-11.6-94.6m-80.9 1.9c1.5 0 3.1 0 4.7.1-1.9 26.1-3.8 52.2-5.5 78.4-1.5 0-3 .1-4.4.1 1.6-26.2 3.5-52.4 5.2-78.6m64.6-.3c1.6 0 3.1 0 4.6-.1l13.1 109.7c-1.4 0-2.8.1-4.2.2-4.5-36.5-9-73.1-13.5-109.8m-47.4 1.2c1.5 0 3.1.1 4.6.2.1 37.1-.4 74.1-.4 111.1h-4.2c0-37.1-.2-74.2 0-111.3m14 .2c1.5 0 3.1-.1 4.6 0 .1 37.1 0 74.1 0 111.2h-4.2c.1-37.1-.4-74.2-.4-111.2m17.3-.4h4.6c1.7 26 3.6 51.9 5.2 77.8l-4.1.3c-2.4-26-3.8-52.1-5.7-78.1z"/></svg>