<svg width="1480" height="740" viewBox="0 0 1480 740" xmlns="http://www.w3.org/2000/svg"><g fill="#FFF" fill-rule="evenodd"><path d="M1110.386 550.06c18.95-46.47 29.39-97.306 29.39-150.577C1139.776 178.853 960.69 0 739.776 0s-400 178.854-400 399.483c0 53.27 10.44 104.107 29.39 150.577h741.22zm-70.61-9.79l-58.993-138.43c-.432-1.015-1.24-1.072-1.805-.124l-23.045 38.635c-.565.947-1.444.915-1.956-.056L880.934 301.77c-.516-.977-1.562-1.142-2.346-.358l-37.176 37.176c-.78.78-1.848.63-2.388-.34l-98.272-176.495c-.54-.968-1.347-.934-1.8.066l-98.127 216.36c-.456 1.004-1.458 1.186-2.234.41l-57.18-57.18c-.78-.78-1.9-.663-2.51.27l-77.8 118.703c-.606.928-1.566 2.44-2.144 3.383l-59.18 96.448 600 .056zM34.416 682.382c22.5 0 32.25-11.86 32.25-25.716 0-31.084-48.5-21.47-48.5-36.95 0-6.243 5.5-10.362 14.125-10.362 8.75 0 17.626 2.996 24.126 9.487l8.375-10.86c-7.75-7.49-18.25-11.61-31.25-11.61-18.25 0-30.372 10.613-30.372 24.345 0 30.71 48.623 19.85 48.623 37.325 0 5.492-4.75 11.36-16.75 11.36-11.623 0-20.623-5.37-26.373-11.485L.542 669.15c7.374 7.864 18.5 13.232 33.874 13.232zm128.746 0c24.124 0 36-13.732 36-34.454v-50.31h-14.75v49.935c0 13.233-7.375 21.846-21.25 21.846-14 0-21.374-8.615-21.374-21.848V597.62h-14.75v50.433c0 20.472 11.875 34.33 36.124 34.33zm165.12-1.498l-20.374-32.707c10-1.622 19.75-9.612 19.75-24.467 0-15.355-10.75-26.09-27.25-26.09h-36.624v83.264h14.625V649.8h14.497l18.5 31.084h16.874zm-29.874-43.942h-20v-26.465h20c8.25 0 14.25 5.243 14.25 13.233s-6 13.232-14.25 13.232zm155.246 43.942l-20.375-32.707c10-1.622 19.75-9.612 19.75-24.467 0-15.355-10.75-26.09-27.25-26.09h-36.625v83.264h14.624V649.8h14.5l18.5 31.084h16.873zm-29.874-43.942h-20v-26.465h20c8.25 0 14.25 5.243 14.25 13.233s-6 13.232-14.25 13.232zm129.62 45.44c25 0 42.625-18.226 42.625-43.068S578.4 596.246 553.4 596.246c-24.998 0-42.623 18.226-42.623 43.068s17.625 43.068 42.624 43.068zm0-12.983c-16.874 0-27.623-12.984-27.623-30.087 0-17.227 10.75-30.085 27.624-30.085 16.75 0 27.626 12.857 27.626 30.084 0 17.103-10.875 30.085-27.624 30.085zm139.747 12.98c24.124 0 36-13.73 36-34.453v-50.31h-14.75v49.935c0 13.233-7.375 21.846-21.25 21.846-14 0-21.374-8.614-21.374-21.847v-49.93h-14.75v50.433c0 20.472 11.875 34.33 36.124 34.33zm172.87-1.497V597.62h-14.624v57.798l-42.624-57.8h-15v83.266h14.623v-59.42l43.498 59.42h14.126zm95.622 0c26 0 43.622-17.102 43.622-41.57 0-24.467-17.624-41.695-43.624-41.695h-31v83.264h31zm0-12.858h-16.376v-57.55h16.374c18.624 0 28.624 12.734 28.624 28.838 0 15.73-10.5 28.712-28.625 28.712zm119.245 12.858V597.62h-14.625v83.264h14.626zm136.87 0V597.62h-14.623v57.798l-42.624-57.8h-15v83.266h14.624v-59.42l43.5 59.42h14.123zm104.623 1.623c14.5 0 26.123-5.992 34.373-15.105v-31.21h-39.5v12.86h24.877v12.983c-3.75 3.495-11.25 7.49-19.75 7.49-16.5 0-28.75-12.733-28.75-30.21s12.25-30.085 28.75-30.085c9.374 0 17.25 4.868 21.624 11.11l12-6.742c-6.75-9.612-17.374-17.352-33.624-17.352-24.125 0-43.75 16.978-43.75 43.068 0 26.09 19.625 43.193 43.75 43.193zm124.996-.125c22.5 0 32.25-11.86 32.25-25.715 0-31.084-48.5-21.47-48.5-36.95 0-6.243 5.5-10.362 14.125-10.362 8.75 0 17.624 2.996 24.124 9.487l8.375-10.86c-7.75-7.49-18.25-11.61-31.25-11.61-18.25 0-30.374 10.612-30.374 24.344 0 30.71 48.623 19.85 48.623 37.325 0 5.49-4.75 11.36-16.75 11.36-11.625 0-20.625-5.37-26.375-11.486l-8.124 11.235c7.375 7.863 18.5 13.23 33.875 13.23z"/><path d="M0 540h1480v20H0zm0 180h1480v20H0z"/></g></svg>