<svg xmlns="http://www.w3.org/2000/svg" width="32" height="32" viewBox="0 0 32 32"><path d="M30.72 6.87a12.078 12.078 0 0 1-3.47.95 6.05 6.05 0 0 0 2.656-3.34 12.114 12.114 0 0 1-3.834 1.466 6.033 6.033 0 0 0-4.41-1.907 6.04 6.04 0 0 0-5.883 7.413 17.14 17.14 0 0 1-12.45-6.31 6.036 6.036 0 0 0 1.867 8.064 6.016 6.016 0 0 1-2.735-.755v.075a6.047 6.047 0 0 0 4.845 5.923 6.044 6.044 0 0 1-2.728.104c.767 2.4 3 4.146 5.64 4.194a12.11 12.11 0 0 1-7.5 2.586c-.488 0-.968-.03-1.44-.085a17.087 17.087 0 0 0 9.26 2.713c11.108 0 17.183-9.203 17.183-17.186 0-.26-.005-.522-.018-.78A12.272 12.272 0 0 0 30.72 6.87z" fill="#fff"/></svg>