<svg xmlns="http://www.w3.org/2000/svg" width="32" height="32" viewBox="0 0 32 32"><path d="M30.72 6.869c-1.085.482-2.248.805-3.47.952 1.248-.747 2.206-1.931 2.656-3.341-1.166.691-2.459 1.195-3.834 1.466-1.102-1.174-2.672-1.907-4.41-1.907-3.336 0-6.04 2.704-6.04 6.038 0 .474.053.934.157 1.376-5.019-.251-9.47-2.656-12.448-6.31-.522.891-.821 1.93-.821 3.037 0 2.096 1.067 3.944 2.688 5.027-.99-.032-1.922-.302-2.736-.755v.075c0 2.926 2.083 5.366 4.845 5.923-.506.138-1.04.211-1.592.211-.389 0-.766-.037-1.136-.107.768 2.4 3 4.146 5.642 4.194-2.067 1.621-4.67 2.586-7.501 2.586-.488 0-.968-.029-1.44-.085 2.672 1.714 5.846 2.714 9.259 2.714 11.109 0 17.184-9.203 17.184-17.186 0-.261-.005-.522-.018-.781 1.181-.851 2.203-1.915 3.014-3.126z" fill="#fff"/></svg>