<svg xmlns="http://www.w3.org/2000/svg" width="32" height="32" viewBox="0 0 32 32"><path d="M30.72 6.87c-1.085.48-2.248.804-3.47.95 1.248-.746 2.206-1.93 2.656-3.34-1.166.69-2.46 1.195-3.834 1.466C24.97 4.772 23.4 4.04 21.662 4.04c-3.336 0-6.04 2.703-6.04 6.037 0 .474.053.934.157 1.376-5.02-.25-9.47-2.656-12.45-6.31-.52.89-.82 1.93-.82 3.037 0 2.096 1.067 3.944 2.688 5.027-.99-.032-1.922-.302-2.736-.755v.075c0 2.926 2.083 5.366 4.845 5.923-.506.138-1.04.21-1.592.21-.39 0-.766-.036-1.136-.106.767 2.4 3 4.146 5.64 4.194-2.066 1.62-4.67 2.586-7.5 2.586-.488 0-.968-.03-1.44-.085 2.672 1.713 5.846 2.713 9.26 2.713 11.108 0 17.183-9.203 17.183-17.186 0-.26-.005-.522-.018-.78 1.18-.852 2.203-1.916 3.014-3.127z" fill="#fff"/></svg>